<svg width="120" height="120" viewBox="0 0 120 120" fill="none" xmlns="http://www.w3.org/2000/svg">
<rect x="54" y="2" width="66.6616" height="94.3421" rx="6" transform="rotate(30 54 2)" fill="#E8DBD8"/>
<path d="M28 20.0334C28 16.7197 30.6863 14.0334 34 14.0334L86 14.0334C89.3137 14.0334 92 16.7197 92 20.0334V99.0334C92 102.347 89.3137 105.033 86 105.033H34C30.6863 105.033 28 102.347 28 99.0334L28 20.0334Z" fill="#FBF8F7"/>
<path d="M24 99.0334L24 20.0334C24 14.5106 28.4772 10.0334 34 10.0334V14.0334C30.6863 14.0334 28 16.7197 28 20.0334L28 99.0334C28 102.347 30.6863 105.033 34 105.033H86C89.3137 105.033 92 102.347 92 99.0334V20.0334C92 16.7197 89.3137 14.0334 86 14.0334V10.0334C91.5228 10.0334 96 14.5106 96 20.0334V99.0334C96 104.556 91.5228 109.033 86 109.033H34C28.4772 109.033 24 104.556 24 99.0334ZM86 10.0334V14.0334L34 14.0334V10.0334L86 10.0334Z" fill="#E8DBD8"/>
<path d="M55.2803 32.4475C56.3846 32.4477 57.2802 33.3431 57.2803 34.4475V36.9768C57.2801 38.0812 56.3846 38.9766 55.2803 38.9768H37.3389C36.2344 38.9768 35.339 38.0813 35.3389 36.9768V34.4475C35.339 33.343 36.2344 32.4475 37.3389 32.4475H55.2803ZM63.7881 24.2864C64.8924 24.2866 65.788 25.182 65.7881 26.2864V28.8157C65.7879 29.92 64.8924 30.8155 63.7881 30.8157H37.3389C36.2344 30.8157 35.339 29.9201 35.3389 28.8157V26.2864C35.339 25.1819 36.2344 24.2864 37.3389 24.2864H63.7881Z" fill="url(#paint0_linear_4098_5986)"/>
<path d="M35 47.0334C35 45.9289 35.8954 45.0334 37 45.0334H83C84.1046 45.0334 85 45.9289 85 47.0334V50.0334C85 51.138 84.1046 52.0334 83 52.0334H37C35.8954 52.0334 35 51.138 35 50.0334V47.0334Z" fill="#F3EBE8"/>
<path d="M35 69.0334C35 67.9289 35.8954 67.0334 37 67.0334H83C84.1046 67.0334 85 67.9289 85 69.0334V72.0334C85 73.138 84.1046 74.0334 83 74.0334H37C35.8954 74.0334 35 73.138 35 72.0334V69.0334Z" fill="#F3EBE8"/>
<path d="M35 56.0334C35 54.9289 35.8954 54.0334 37 54.0334H65C66.1046 54.0334 67 54.9289 67 56.0334V59.0334C67 60.138 66.1046 61.0334 65 61.0334H37C35.8954 61.0334 35 60.138 35 59.0334V56.0334Z" fill="#F3EBE8"/>
<path d="M35 87.0334C35 85.9289 35.8954 85.0334 37 85.0334H65C66.1046 85.0334 67 85.9289 67 87.0334V89.0334C67 90.138 66.1046 91.0334 65 91.0334H37C35.8954 91.0334 35 90.138 35 89.0334V87.0334Z" fill="#F3EBE8"/>
<path d="M35 78.0334C35 76.9289 35.8954 76.0334 37 76.0334H83C84.1046 76.0334 85 76.9289 85 78.0334V81.0334C85 82.138 84.1046 83.0334 83 83.0334H37C35.8954 83.0334 35 82.138 35 81.0334V78.0334Z" fill="#F3EBE8"/>
<defs>
<linearGradient id="paint0_linear_4098_5986" x1="50.1942" y1="37.3446" x2="36.9871" y2="25.1025" gradientUnits="userSpaceOnUse">
<stop stop-color="#FF7769"/>
<stop offset="1" stop-color="#FFC2BA"/>
</linearGradient>
</defs>
</svg>
