<svg width="120" height="120" viewBox="0 0 120 120" fill="none" xmlns="http://www.w3.org/2000/svg">
<path d="M60 24L60 96" stroke="#C3B5B2" stroke-width="4" stroke-dasharray="2 6"/>
<path d="M96.005 59.9951L24.005 59.9951" stroke="#C3B5B2" stroke-width="4" stroke-dasharray="2 6"/>
<circle opacity="0.4" cx="60" cy="60" r="20" fill="#FF7769"/>
<circle cx="60" cy="60" r="12" fill="#FF7769"/>
<path d="M44 98H76C77.1046 98 78 98.8954 78 100V112C78 113.105 77.1046 114 76 114H44C42.8954 114 42 113.105 42 112V100C42 98.8954 42.8954 98 44 98ZM44 6H76C77.1046 6 78 6.89543 78 8V20C78 21.1046 77.1046 22 76 22H44C42.8954 22 42 21.1046 42 20V8C42 6.89543 42.8954 6 44 6Z" fill="#FBF8F7" stroke="#E8DBD8" stroke-width="4"/>
<path d="M4 54C4 51.7909 5.79086 50 8 50H20C22.2091 50 24 51.7909 24 54V66C24 68.2091 22.2091 70 20 70H8C5.79086 70 4 68.2091 4 66V54Z" fill="#C3B5B2"/>
<path d="M96 54C96 51.7909 97.7909 50 100 50H112C114.209 50 116 51.7909 116 54V66C116 68.2091 114.209 70 112 70H100C97.7909 70 96 68.2091 96 66V54Z" fill="#C3B5B2"/>
</svg>
