<svg width="120" height="120" viewBox="0 0 120 120" fill="none" xmlns="http://www.w3.org/2000/svg">
<path d="M60 26C78.7777 26 94 41.2223 94 60C94 78.7777 78.7777 94 60 94C41.2223 94 26 78.7777 26 60C26 41.2223 41.2223 26 60 26Z" fill="#160D0D"/>
<path fill-rule="evenodd" clip-rule="evenodd" d="M51.9942 7.53614C56.2901 2.82128 63.7099 2.82129 68.0059 7.53614C70.8557 10.6641 75.2668 11.8465 79.2988 10.5625C85.3768 8.62725 91.8022 12.337 93.165 18.5684C94.0691 22.7021 97.298 25.9309 101.432 26.835C107.663 28.1978 111.373 34.6233 109.438 40.7012C108.154 44.7332 109.336 49.1443 112.464 51.9942C117.179 56.2901 117.179 63.7099 112.464 68.0059C109.336 70.8557 108.154 75.2668 109.438 79.2988C111.373 85.3768 107.663 91.8022 101.432 93.165C97.298 94.0692 94.0692 97.298 93.165 101.432C91.8022 107.663 85.3768 111.373 79.2988 109.438C75.2668 108.154 70.8557 109.336 68.0059 112.464C63.7099 117.179 56.2901 117.179 51.9942 112.464C49.1443 109.336 44.7332 108.154 40.7012 109.438C34.6233 111.373 28.1978 107.663 26.835 101.432C25.9309 97.298 22.7021 94.0691 18.5684 93.165C12.337 91.8022 8.62725 85.3768 10.5625 79.2988C11.8465 75.2668 10.6641 70.8557 7.53614 68.0059C2.82129 63.7099 2.82128 56.2901 7.53614 51.9942C10.6641 49.1443 11.8465 44.7332 10.5625 40.7012C8.62729 34.6233 12.337 28.1978 18.5684 26.835C22.7021 25.9309 25.9309 22.7021 26.835 18.5684C28.1978 12.337 34.6233 8.62729 40.7012 10.5625C44.7332 11.8465 49.1443 10.6641 51.9942 7.53614ZM60 20C37.9086 20 20 37.9086 20 60C20 82.0914 37.9086 100 60 100C82.0914 100 100 82.0914 100 60C100 37.9086 82.0914 20 60 20Z" fill="#5C4F4C"/>
<path d="M60.9805 22.0127C81.5141 22.5328 98 39.341 98 60C98 80.9868 80.9868 98 60 98C39.0132 98 22 80.9868 22 60L22.0127 59.0195C22.5328 38.4859 39.341 22 60 22L60.9805 22.0127Z" stroke="#332A2A" stroke-width="8"/>
<path d="M69.7467 78.8492C66.3843 78.8492 64.27 77.1905 63.4039 73.873C59.7868 77.291 56.0932 79 52.3231 79C49.7249 79 47.5087 78.246 45.6747 76.7381C43.8916 75.1799 43 73.0437 43 70.3294C43 63.6944 49.8523 59.5225 63.5568 57.8135C63.5568 56.6071 63.5568 55.3757 63.5568 54.119C63.6077 52.8624 63.6332 51.5304 63.6332 50.123C63.6332 48.3638 62.9709 47.0066 61.6463 46.0516C60.3726 45.0463 58.8188 44.5437 56.9847 44.5437C55.6601 44.5437 54.5393 44.7447 53.6223 45.1468C53.6223 46.3029 53.3675 47.4841 52.8581 48.6905C52.3486 49.8968 51.6354 50.9272 50.7183 51.7817C49.8523 52.586 48.7824 52.9881 47.5087 52.9881C46.3879 52.9881 45.4964 52.6865 44.8341 52.0833C44.2227 51.4299 43.917 50.6508 43.917 49.746C43.917 48.5397 44.4774 47.4087 45.5983 46.3532C46.77 45.2474 48.2475 44.3175 50.0306 43.5635C51.8137 42.7593 53.6732 42.131 55.6092 41.6786C57.5451 41.2262 59.2773 41 60.8057 41C62.6907 41 64.4229 41.3519 66.0022 42.0556C67.6325 42.709 68.9316 43.7143 69.8996 45.0714C70.9185 46.3783 71.4279 48.0119 71.4279 49.9722C71.4279 51.1786 71.4025 52.7619 71.3515 54.7222C71.3006 56.6323 71.2496 58.6931 71.1987 60.9048C71.1987 63.0661 71.1732 65.127 71.1223 67.0873C71.0713 69.0476 71.0458 70.631 71.0458 71.8373C71.0458 73.4458 71.7591 74.25 73.1856 74.25C74.1026 74.25 75.5036 73.9484 77.3886 73.3452C77.5924 73.5966 77.7198 73.873 77.7707 74.1746C77.8726 74.4762 77.9491 74.7526 78 75.004C76.7263 76.3611 75.3763 77.3413 73.9498 77.9444C72.5742 78.5476 71.1732 78.8492 69.7467 78.8492ZM63.4039 71.8373L63.5568 60.5278C58.8697 61.131 55.6346 62.1111 53.8515 63.4683C52.1194 64.8254 51.2533 66.5595 51.2533 68.6706C51.2533 70.4299 51.7118 71.787 52.6288 72.7421C53.5968 73.6468 54.794 74.0992 56.2205 74.0992C57.1376 74.0992 58.1565 73.8981 59.2773 73.496C60.4491 73.0939 61.8246 72.541 63.4039 71.8373Z" fill="url(#paint0_linear_4135_3252)"/>
<defs>
<linearGradient id="paint0_linear_4135_3252" x1="65.591" y1="60" x2="60.5" y2="79" gradientUnits="userSpaceOnUse">
<stop stop-color="#FF7769"/>
<stop offset="1" stop-color="#8F382E"/>
</linearGradient>
</defs>
</svg>
