<svg width="696" height="152" viewBox="0 0 696 152" fill="none" xmlns="http://www.w3.org/2000/svg">
<rect x="0.5" y="0.5" width="695" height="151" rx="4.5" stroke="#9747FF" stroke-dasharray="10 5"/>
<path d="M32 22H120C125.523 22 130 26.4772 130 32V88C130 93.5228 125.523 98 120 98H32C26.4772 98 22 93.5228 22 88V32C22 26.4772 26.4772 22 32 22Z" fill="#160D0D" stroke="#332A2A" stroke-width="4"/>
<rect x="32" y="32" width="44" height="34" rx="4" fill="#221918"/>
<rect x="84" y="32" width="36" height="12" rx="4" fill="#5C4F4C"/>
<rect x="84" y="49" width="26" height="12" rx="4" fill="#332A2A"/>
<rect x="84" y="49" width="26" height="12" rx="4" fill="#5C4F4C"/>
<rect x="32" y="71" width="88" height="12" rx="4" fill="#221918"/>
<path d="M82.0093 81.2158C81.7876 77.9037 85.5933 75.7986 88.2758 77.7495L127.42 106.216C130.567 108.505 128.669 113.498 124.749 113.244L105.838 112.017C104.354 111.921 102.93 112.666 102.161 113.941L92.4408 130.063C90.4579 133.352 85.4222 132.218 85.1685 128.426L82.0093 81.2158Z" fill="url(#paint0_linear_4135_3236)"/>
<path d="M212 40L212 112" stroke="#5C4F4C" stroke-width="4" stroke-dasharray="2 6"/>
<path d="M248.005 75.995L176.005 75.995" stroke="#5C4F4C" stroke-width="4" stroke-dasharray="2 6"/>
<circle opacity="0.4" cx="212" cy="76" r="20" fill="#FF7769"/>
<circle cx="212" cy="76" r="12" fill="#FF7769"/>
<path d="M196 114H228C229.105 114 230 114.895 230 116V128C230 129.105 229.105 130 228 130H196C194.895 130 194 129.105 194 128V116C194 114.895 194.895 114 196 114ZM196 22H228C229.105 22 230 22.8954 230 24V36C230 37.1046 229.105 38 228 38H196C194.895 38 194 37.1046 194 36V24C194 22.8954 194.895 22 196 22Z" fill="#160D0D" stroke="#332A2A" stroke-width="4"/>
<path d="M156 70C156 67.7909 157.791 66 160 66H172C174.209 66 176 67.7909 176 70V82C176 84.2091 174.209 86 172 86H160C157.791 86 156 84.2091 156 82V70Z" fill="#5C4F4C"/>
<path d="M248 70C248 67.7909 249.791 66 252 66H264C266.209 66 268 67.7909 268 70V82C268 84.2091 266.209 86 264 86H252C249.791 86 248 84.2091 248 82V70Z" fill="#5C4F4C"/>
<path d="M348 42C366.778 42 382 57.2223 382 76C382 94.7777 366.778 110 348 110C329.222 110 314 94.7777 314 76C314 57.2223 329.222 42 348 42Z" fill="#160D0D"/>
<path fill-rule="evenodd" clip-rule="evenodd" d="M339.994 23.5361C344.29 18.8213 351.71 18.8213 356.006 23.5361C358.856 26.6641 363.267 27.8465 367.299 26.5625C373.377 24.6273 379.802 28.337 381.165 34.5684C382.069 38.7021 385.298 41.9309 389.432 42.835C395.663 44.1978 399.373 50.6233 397.438 56.7012C396.154 60.7332 397.336 65.1443 400.464 67.9942C405.179 72.2901 405.179 79.7099 400.464 84.0059C397.336 86.8557 396.154 91.2668 397.438 95.2988C399.373 101.377 395.663 107.802 389.432 109.165C385.298 110.069 382.069 113.298 381.165 117.432C379.802 123.663 373.377 127.373 367.299 125.438C363.267 124.154 358.856 125.336 356.006 128.464C351.71 133.179 344.29 133.179 339.994 128.464C337.144 125.336 332.733 124.154 328.701 125.438C322.623 127.373 316.198 123.663 314.835 117.432C313.931 113.298 310.702 110.069 306.568 109.165C300.337 107.802 296.627 101.377 298.563 95.2988C299.846 91.2668 298.664 86.8557 295.536 84.0059C290.821 79.7099 290.821 72.2901 295.536 67.9942C298.664 65.1443 299.846 60.7332 298.563 56.7012C296.627 50.6233 300.337 44.1978 306.568 42.835C310.702 41.9309 313.931 38.7021 314.835 34.5684C316.198 28.337 322.623 24.6273 328.701 26.5625C332.733 27.8465 337.144 26.6641 339.994 23.5361ZM348 36C325.909 36 308 53.9086 308 76C308 98.0914 325.909 116 348 116C370.091 116 388 98.0914 388 76C388 53.9086 370.091 36 348 36Z" fill="#5C4F4C"/>
<path d="M348.98 38.0127C369.514 38.5328 386 55.341 386 76C386 96.9868 368.987 114 348 114C327.013 114 310 96.9868 310 76L310.013 75.0195C310.533 54.4859 327.341 38 348 38L348.98 38.0127Z" stroke="#332A2A" stroke-width="8"/>
<path d="M357.747 94.8492C354.384 94.8492 352.27 93.1905 351.404 89.873C347.787 93.291 344.093 95 340.323 95C337.725 95 335.509 94.246 333.675 92.7381C331.892 91.1799 331 89.0437 331 86.3294C331 79.6944 337.852 75.5225 351.557 73.8135C351.557 72.6071 351.557 71.3757 351.557 70.119C351.608 68.8624 351.633 67.5304 351.633 66.123C351.633 64.3638 350.971 63.0066 349.646 62.0516C348.373 61.0463 346.819 60.5437 344.985 60.5437C343.66 60.5437 342.539 60.7447 341.622 61.1468C341.622 62.3029 341.368 63.4841 340.858 64.6905C340.349 65.8968 339.635 66.9272 338.718 67.7817C337.852 68.586 336.782 68.9881 335.509 68.9881C334.388 68.9881 333.496 68.6865 332.834 68.0833C332.223 67.4299 331.917 66.6508 331.917 65.746C331.917 64.5397 332.477 63.4087 333.598 62.3532C334.77 61.2474 336.247 60.3175 338.031 59.5635C339.814 58.7593 341.673 58.131 343.609 57.6786C345.545 57.2262 347.277 57 348.806 57C350.691 57 352.423 57.3519 354.002 58.0556C355.632 58.709 356.932 59.7143 357.9 61.0714C358.918 62.3783 359.428 64.0119 359.428 65.9722C359.428 67.1786 359.402 68.7619 359.352 70.7222C359.301 72.6323 359.25 74.6931 359.199 76.9048C359.199 79.0661 359.173 81.127 359.122 83.0873C359.071 85.0476 359.046 86.631 359.046 87.8373C359.046 89.4458 359.759 90.25 361.186 90.25C362.103 90.25 363.504 89.9484 365.389 89.3452C365.592 89.5966 365.72 89.873 365.771 90.1746C365.873 90.4762 365.949 90.7526 366 91.004C364.726 92.3611 363.376 93.3413 361.95 93.9444C360.574 94.5476 359.173 94.8492 357.747 94.8492ZM351.404 87.8373L351.557 76.5278C346.87 77.131 343.635 78.1111 341.852 79.4683C340.119 80.8254 339.253 82.5595 339.253 84.6706C339.253 86.4299 339.712 87.787 340.629 88.7421C341.597 89.6468 342.794 90.0992 344.221 90.0992C345.138 90.0992 346.156 89.8981 347.277 89.496C348.449 89.0939 349.825 88.541 351.404 87.8373Z" fill="url(#paint1_linear_4135_3236)"/>
<g clip-path="url(#clip0_4135_3236)">
<circle cx="484" cy="76" r="45" fill="#332A2A"/>
<path d="M456.533 29.673C455.314 28.6247 453.477 28.7623 452.429 29.9806C448.289 34.7915 443.533 43.3704 442.427 53.7704C441.308 64.2923 443.947 76.5453 454.438 88.3931C463.4 98.5125 474.335 102.982 484.74 103.701C485.385 109.095 487.05 114.054 489.235 118.311C493.062 125.769 498.722 131.509 503.82 133.48C505.319 134.06 507.005 133.314 507.585 131.815C508.164 130.316 507.419 128.631 505.92 128.051C502.636 126.781 497.872 122.393 494.413 115.653C492.605 112.131 491.222 108.086 490.612 103.716C493.515 103.532 496.336 103.07 499.013 102.372C505.876 100.583 511.935 97.2237 516.122 92.9398C520.298 88.6658 522.827 83.2059 521.837 77.4364C520.976 72.4226 518.619 68.6557 515.07 66.6188C511.545 64.5965 507.356 64.5743 503.412 65.9967C495.566 68.8268 488.093 77.4624 485.34 90.3803C484.799 92.9165 484.521 95.412 484.462 97.8442C475.644 97.0744 466.437 93.1627 458.796 84.5345C449.425 73.952 447.264 63.337 448.216 54.3861C449.18 45.3136 453.366 37.8154 456.841 33.7772C457.889 32.5589 457.751 30.7214 456.533 29.673ZM512.172 71.6674C513.864 72.638 515.456 74.6714 516.1 78.4214C516.676 81.7782 515.299 85.4527 511.958 88.8711C508.627 92.2796 503.558 95.1713 497.545 96.739C495.229 97.3428 492.792 97.7449 490.285 97.9077C490.34 95.8456 490.577 93.7352 491.033 91.5943C493.481 80.1109 499.894 73.4533 505.386 71.4723C508.112 70.4894 510.455 70.6821 512.172 71.6674Z" fill="url(#paint2_linear_4135_3236)"/>
<path d="M539.215 35.9438L524.056 20.7849C523.009 19.7384 521.312 19.7384 520.266 20.7849L475.217 65.8338L471.517 86.1564C471.267 87.5314 472.468 88.7326 473.843 88.4823L494.166 84.7824L539.215 39.7335C540.261 38.687 540.261 36.9903 539.215 35.9438Z" fill="#5C4F4C"/>
<path d="M534.999 31.5146L487.497 77.9111L480.085 82.5717C477.74 84.047 474.96 81.4221 476.391 79.0828L481.486 70.752L528.329 25L534.999 31.5146Z" fill="#160D0D"/>
<path d="M481.405 87L472.999 78.5939L475.32 66L493.999 84.6806L481.405 87Z" fill="#221918"/>
<path d="M473.855 88.4741C472.477 88.7279 471.272 87.5228 471.525 86.1448L473.026 78L481.999 86.9737L473.855 88.4741Z" fill="#FF7769"/>
</g>
<rect x="614" y="18" width="66.6616" height="94.3421" rx="6" transform="rotate(30 614 18)" fill="#332A2A"/>
<path d="M588 36.0334C588 32.7197 590.686 30.0334 594 30.0334H646C649.314 30.0334 652 32.7197 652 36.0334V115.033C652 118.347 649.314 121.033 646 121.033H594C590.686 121.033 588 118.347 588 115.033V36.0334Z" fill="#160D0D"/>
<path d="M584 115.033V36.0334C584 30.5106 588.477 26.0334 594 26.0334V30.0334C590.686 30.0334 588 32.7197 588 36.0334V115.033C588 118.347 590.686 121.033 594 121.033H646C649.314 121.033 652 118.347 652 115.033V36.0334C652 32.7197 649.314 30.0334 646 30.0334V26.0334C651.523 26.0334 656 30.5106 656 36.0334V115.033C656 120.556 651.523 125.033 646 125.033H594C588.477 125.033 584 120.556 584 115.033ZM646 26.0334V30.0334H594V26.0334H646Z" fill="#332A2A"/>
<path d="M615.28 48.4475C616.385 48.4477 617.28 49.3431 617.28 50.4475V52.9768C617.28 54.0812 616.385 54.9766 615.28 54.9768H597.339C596.234 54.9768 595.339 54.0813 595.339 52.9768V50.4475C595.339 49.343 596.234 48.4475 597.339 48.4475H615.28ZM623.788 40.2864C624.892 40.2866 625.788 41.182 625.788 42.2864V44.8157C625.788 45.92 624.892 46.8155 623.788 46.8157H597.339C596.234 46.8157 595.339 45.9201 595.339 44.8157V42.2864C595.339 41.1819 596.234 40.2864 597.339 40.2864H623.788Z" fill="url(#paint3_linear_4135_3236)"/>
<path d="M595 63.0334C595 61.9289 595.895 61.0334 597 61.0334H643C644.105 61.0334 645 61.9289 645 63.0334V66.0334C645 67.138 644.105 68.0334 643 68.0334H597C595.895 68.0334 595 67.138 595 66.0334V63.0334Z" fill="#221918"/>
<path d="M595 85.0334C595 83.9289 595.895 83.0334 597 83.0334H643C644.105 83.0334 645 83.9289 645 85.0334V88.0334C645 89.138 644.105 90.0334 643 90.0334H597C595.895 90.0334 595 89.138 595 88.0334V85.0334Z" fill="#221918"/>
<path d="M595 72.0334C595 70.9289 595.895 70.0334 597 70.0334H625C626.105 70.0334 627 70.9289 627 72.0334V75.0334C627 76.138 626.105 77.0334 625 77.0334H597C595.895 77.0334 595 76.138 595 75.0334V72.0334Z" fill="#221918"/>
<path d="M595 103.033C595 101.929 595.895 101.033 597 101.033H625C626.105 101.033 627 101.929 627 103.033V105.033C627 106.138 626.105 107.033 625 107.033H597C595.895 107.033 595 106.138 595 105.033V103.033Z" fill="#221918"/>
<path d="M595 94.0334C595 92.9289 595.895 92.0334 597 92.0334H643C644.105 92.0334 645 92.9289 645 94.0334V97.0334C645 98.138 644.105 99.0334 643 99.0334H597C595.895 99.0334 595 98.138 595 97.0334V94.0334Z" fill="#221918"/>
<defs>
<linearGradient id="paint0_linear_4135_3236" x1="105.5" y1="104" x2="105.5" y2="132" gradientUnits="userSpaceOnUse">
<stop stop-color="#FF7769"/>
<stop offset="1" stop-color="#8F382E"/>
</linearGradient>
<linearGradient id="paint1_linear_4135_3236" x1="353.591" y1="76" x2="348.5" y2="95" gradientUnits="userSpaceOnUse">
<stop stop-color="#FF7769"/>
<stop offset="1" stop-color="#8F382E"/>
</linearGradient>
<linearGradient id="paint2_linear_4135_3236" x1="466.088" y1="135" x2="466.088" y2="81" gradientUnits="userSpaceOnUse">
<stop stop-color="#8F382E"/>
<stop offset="1" stop-color="#FF7769"/>
</linearGradient>
<linearGradient id="paint3_linear_4135_3236" x1="612.604" y1="59" x2="607.908" y2="48.8733" gradientUnits="userSpaceOnUse">
<stop stop-color="#8F382E"/>
<stop offset="1" stop-color="#FF7769"/>
</linearGradient>
<clipPath id="clip0_4135_3236">
<rect width="120" height="120" fill="white" transform="translate(424 16)"/>
</clipPath>
</defs>
</svg>
