<svg width="120" height="120" viewBox="0 0 120 120" fill="none" xmlns="http://www.w3.org/2000/svg">
<g clip-path="url(#clip0_4135_3257)">
<circle cx="60" cy="60" r="45" fill="#332A2A"/>
<path d="M32.5326 13.673C31.3143 12.6247 29.4772 12.7623 28.4288 13.9806C24.2885 18.7915 19.5334 27.3704 18.4274 37.7704C17.3085 48.2923 19.9465 60.5453 30.4384 72.3931C39.3997 82.5125 50.335 86.982 60.7401 87.7009C61.385 93.0948 63.0502 98.0544 65.2346 102.311C69.0622 109.769 74.7217 115.509 79.8203 117.48C81.3195 118.06 83.0049 117.314 83.5845 115.815C84.1638 114.316 83.4188 112.631 81.9199 112.051C78.6356 110.781 73.8716 106.393 70.4128 99.6534C68.6049 96.1306 67.2222 92.0859 66.6123 87.7164C69.5154 87.5322 72.3357 87.0699 75.0135 86.3718C81.8764 84.5825 87.9352 81.2237 92.1217 76.9398C96.2985 72.6658 98.8274 67.2059 97.8367 61.4364C96.9758 56.4226 94.619 52.6557 91.0696 50.6188C87.5454 48.5965 83.3556 48.5743 79.4116 49.9967C71.5655 52.8268 64.0934 61.4624 61.3397 74.3803C60.7991 76.9165 60.5213 79.412 60.4621 81.8442C51.6445 81.0744 42.4369 77.1627 34.7961 68.5345C25.4246 57.952 23.2638 47.337 24.2156 38.3861C25.1803 29.3136 29.3657 21.8154 32.841 17.7772C33.8893 16.5589 33.7508 14.7214 32.5326 13.673ZM88.1723 55.6674C89.8639 56.638 91.4562 58.6714 92.1001 62.4214C92.6765 65.7782 91.2991 69.4527 87.9584 72.8711C84.6275 76.2796 79.5581 79.1713 73.5451 80.739C71.2291 81.3428 68.7924 81.7449 66.2848 81.9077C66.3395 79.8456 66.5766 77.7352 67.033 75.5943C69.4808 64.1109 75.8944 57.4533 81.3864 55.4723C84.1116 54.4894 86.4554 54.6821 88.1723 55.6674Z" fill="url(#paint0_linear_4135_3257)"/>
<path d="M115.215 19.9438L100.056 4.78488C99.0091 3.73837 97.3124 3.73837 96.2659 4.78488L51.217 49.8338L47.5171 70.1564C47.2668 71.5314 48.468 72.7326 49.843 72.4823L70.1656 68.7824L115.215 23.7335C116.261 22.687 116.261 20.9903 115.215 19.9438Z" fill="#5C4F4C"/>
<path d="M110.999 15.5146L63.4967 61.9111L56.0854 66.5717C53.7398 68.047 50.9601 65.4221 52.3907 63.0828L57.4863 54.752L104.329 9L110.999 15.5146Z" fill="#160D0D"/>
<path d="M57.4052 71L48.9994 62.5939L51.3196 50L69.9994 68.6806L57.4052 71Z" fill="#221918"/>
<path d="M49.8546 72.4741C48.4766 72.7279 47.2715 71.5228 47.5253 70.1448L49.0257 62L57.9994 70.9737L49.8546 72.4741Z" fill="#FF7769"/>
</g>
<defs>
<linearGradient id="paint0_linear_4135_3257" x1="42.0875" y1="119" x2="42.0875" y2="65" gradientUnits="userSpaceOnUse">
<stop stop-color="#8F382E"/>
<stop offset="1" stop-color="#FF7769"/>
</linearGradient>
<clipPath id="clip0_4135_3257">
<rect width="120" height="120" fill="white"/>
</clipPath>
</defs>
</svg>
