<svg width="24" height="24" viewBox="0 0 24 24" fill="none" xmlns="http://www.w3.org/2000/svg">
<path d="M8.17285 9.5C8.17285 6.91708 9.34751 4.6143 11.1924 3.05957C6.56432 3.56971 3 7.39628 3 12C3 16.9476 7.11649 20.9998 12.2461 21C15.1815 21 17.7867 19.6683 19.4775 17.6025C18.6501 17.8589 17.7703 18 16.8574 18C12.0839 18 8.17285 14.2172 8.17285 9.5ZM10.1729 9.5C10.1729 13.0671 13.1424 16 16.8574 16C18.5841 16 20.1526 15.364 21.3369 14.3232C21.6759 14.0253 22.1725 13.9912 22.5488 14.2402C22.9252 14.4893 23.088 14.9602 22.9463 15.3887C21.4815 19.8164 17.2367 23 12.2461 23C6.05812 22.9998 1 18.0978 1 12C1 5.9022 6.05812 1.00024 12.2461 1C13.1803 1 14.0886 1.11299 14.957 1.32324C15.3989 1.43028 15.7132 1.82176 15.7217 2.27637C15.7301 2.73096 15.4308 3.13443 14.9932 3.25781C12.1935 4.04685 10.1729 6.55532 10.1729 9.5Z" fill="#151515"/>
</svg>
