<svg width="24" height="24" viewBox="0 0 24 24" fill="none" xmlns="http://www.w3.org/2000/svg">
<path fill-rule="evenodd" clip-rule="evenodd" d="M12 2C6.47584 2 2 6.47909 2 11.9982C2 17.2445 6.04747 21.5507 11.1888 21.9639V22H12C17.5242 22 22 17.5209 22 12.0018C22 6.48312 17.5246 2 12 2ZM14.2097 20.0835C13.5823 20.2546 12.9256 20.3546 12.2487 20.3744H12C10.8713 20.3744 9.79448 20.1508 8.81146 19.7456C9.76325 16.3162 12.3434 13.8598 15.2966 12.7622C15.8062 15.2321 15.4363 17.879 14.2097 20.0835ZM14.8469 11.2C11.4763 12.414 8.53261 15.1487 7.3498 18.9652C5.10282 17.4623 3.62229 14.902 3.62229 11.9982C3.62229 10.9684 3.80828 9.98192 4.14855 9.07044C5.16277 9.57578 6.24726 9.93325 7.36253 10.132C8.78321 10.3925 10.2388 10.3838 11.6554 10.1284C12.4617 9.98286 13.2489 9.751 14.0036 9.44203C14.3396 10.0005 14.6222 10.589 14.8469 11.2ZM16.8603 12.3157C17.3473 14.5639 17.1996 16.9464 16.4223 19.117C18.7285 17.6808 20.2855 15.1551 20.3738 12.2616C19.2273 12.0537 18.0323 12.0791 16.8603 12.3157ZM20.261 10.601C18.9914 10.4227 17.6858 10.4806 16.4104 10.753C16.1592 10.0484 15.8422 9.36952 15.4644 8.72492C16.5123 8.11975 17.4692 7.35807 18.2917 6.46992C19.2978 7.61379 19.9971 9.03387 20.261 10.601ZM7.64915 8.53553C6.6803 8.36304 5.73925 8.05209 4.86105 7.6132C5.61634 6.38676 6.67894 5.36949 7.94164 4.66893L7.95137 4.67199L7.95173 4.6721L7.95178 4.67212L7.9518 4.67212C8.08936 4.71542 8.22069 4.75674 8.34715 4.80214C8.39381 4.81995 8.43949 4.83728 8.48415 4.8542L8.48485 4.85447L8.48489 4.85448L8.48491 4.85449C8.68998 4.93224 8.87309 5.00167 9.02606 5.07259L9.06971 5.09441L9.08012 5.09925C9.17671 5.14418 9.3159 5.21052 9.44134 5.27033C9.50799 5.30214 9.57081 5.33208 9.62128 5.35596L9.62315 5.35699C9.66534 5.37964 9.70078 5.39868 9.73381 5.41836C9.76068 5.4358 9.78468 5.44993 9.79756 5.45746C9.82109 5.47124 9.84528 5.48486 9.86521 5.49596C9.88224 5.50543 9.89896 5.51464 9.91149 5.52152L9.91781 5.52499L9.93115 5.53236L9.93284 5.53333C9.95143 5.54405 9.97399 5.55693 9.99971 5.57161C10.0549 5.60308 10.1246 5.64286 10.2011 5.68768C10.2551 5.7193 10.3056 5.74946 10.3468 5.77499C10.3774 5.79401 10.3941 5.80504 10.4004 5.80924L10.4008 5.80949C10.4034 5.81122 10.404 5.81162 10.4029 5.81082L10.4385 5.83777L10.478 5.86124C10.5382 5.89699 10.5976 5.93807 10.6717 5.98933L10.6717 5.98935L10.6717 5.98936L10.6721 5.98958C10.7059 6.01299 10.7428 6.03852 10.7842 6.06664L10.8124 6.08574L10.8363 6.09924C10.8363 6.09928 10.8374 6.10003 10.8398 6.10164C10.8462 6.10598 10.8619 6.11651 10.8891 6.13602C10.931 6.16602 10.9816 6.20368 11.0373 6.24555L11.1032 6.29524C11.1371 6.32083 11.1715 6.34677 11.2007 6.36864C11.2394 6.39755 11.2866 6.43264 11.3293 6.46221C11.9518 6.93828 12.5208 7.4819 13.0273 8.08108C12.4884 8.27828 11.9329 8.4301 11.3673 8.53222C10.1343 8.7545 8.875 8.7605 7.6534 8.53631L7.65128 8.53591L7.64915 8.53553ZM12 3.622C13.9229 3.622 15.6944 4.27055 17.1082 5.36048C16.367 6.16246 15.4989 6.84546 14.5485 7.37997C13.895 6.54939 13.139 5.8016 12.2961 5.15952L12.2757 5.14402L12.2546 5.12993L12.2488 5.12593C12.2443 5.12275 12.2383 5.11846 12.2306 5.11287C12.2151 5.10156 12.1958 5.08729 12.1727 5.06997C12.1465 5.05035 12.1201 5.0305 12.0919 5.00917L12.0918 5.00913L12.086 5.00475C12.0631 4.98745 12.0389 4.96914 12.0123 4.94919C11.9549 4.906 11.8919 4.85902 11.834 4.81755C11.7936 4.78857 11.7354 4.74758 11.6761 4.71143L11.6384 4.68538L11.6382 4.68523L11.6382 4.68522C11.561 4.63173 11.4451 4.5515 11.3397 4.48678C11.2412 4.41775 11.1082 4.33911 11.021 4.28806C10.9366 4.23863 10.8457 4.18675 10.7892 4.15454L10.7888 4.15429L10.7461 4.12985C10.7355 4.12366 10.7263 4.11854 10.7227 4.11654L10.7222 4.11626L10.7003 4.10415L10.6929 4.10006C10.6803 4.09314 10.6677 4.0862 10.6546 4.07891C10.6396 4.07057 10.6275 4.06369 10.6186 4.05854L10.6125 4.05427L10.591 4.04112C10.5131 3.99351 10.4319 3.95004 10.3878 3.92644L10.3869 3.92593L10.3716 3.91771L10.3527 3.90757L10.3334 3.89843C10.2947 3.88016 10.2374 3.8529 10.1725 3.82193C10.7607 3.69104 11.3723 3.622 12 3.622Z" fill="#160D0D"/>
</svg>
