<svg width="24" height="24" viewBox="0 0 24 24" fill="none" xmlns="http://www.w3.org/2000/svg">
<path d="M22 18.7432C21.9999 19.0765 21.8682 19.3961 21.6338 19.6318C21.3994 19.8676 21.0815 20 20.75 20H3.25C2.9185 20 2.60063 19.8676 2.36621 19.6318C2.13185 19.3961 2.00007 19.0765 2 18.7432V8.16992L11.6689 14.2471C11.7683 14.3094 11.8829 14.3428 12 14.3428C12.1171 14.3428 12.2317 14.3094 12.3311 14.2471L22 8.16992V18.7432ZM20.75 4C21.0815 4 21.3994 4.13246 21.6338 4.36816C21.8681 4.60385 21.9999 4.92353 22 5.25684V5.94238L12 12.2285L2 5.94238V5.25684C2.00008 4.92353 2.13186 4.60385 2.36621 4.36816C2.60062 4.13245 2.91851 4 3.25 4H20.75Z" fill="#160D0D"/>
</svg>
