<svg width="32" height="32" viewBox="0 0 32 32" fill="none" xmlns="http://www.w3.org/2000/svg">
<path d="M16 0C24.8366 0 32 7.16344 32 16C32 24.8366 24.8366 32 16 32C7.16344 32 0 24.8366 0 16C6.44258e-08 7.16344 7.16344 6.44299e-08 16 0ZM16 2.66699C8.6362 2.66699 2.66699 8.6362 2.66699 16C2.66699 23.3638 8.6362 29.333 16 29.333C23.3638 29.333 29.333 23.3638 29.333 16C29.333 8.6362 23.3638 2.66699 16 2.66699ZM19.4668 11.1113C21.6834 11.1114 23.5557 12.8614 23.5557 15.1113V20.8887H20.8887V15.1113C20.8887 14.4159 20.2937 13.7774 19.4668 13.7773C18.6398 13.7774 18.0439 14.4158 18.0439 15.1113V20.8887H15.3779V15.1113C15.3779 14.416 14.7828 13.7776 13.9561 13.7773C13.155 13.7773 12.571 14.3763 12.5352 15.0459L12.5332 15.1113V20.8887H9.86719V15.1113C9.86719 14.4158 9.27136 13.7773 8.44434 13.7773V11.1113C9.4943 11.1113 10.4662 11.5048 11.1992 12.1572C11.9323 11.5045 12.9058 11.1113 13.9561 11.1113C15.006 11.1114 15.978 11.5047 16.7109 12.1572C17.444 11.5046 18.4166 11.1113 19.4668 11.1113Z" fill="#160D0D"/>
</svg>
