<svg width="24" height="24" viewBox="0 0 24 24" fill="none" xmlns="http://www.w3.org/2000/svg">
<g clip-path="url(#clip0_8_1876)">
<path d="M16 12C16 9.79086 14.2091 8 12 8C9.79086 8 8 9.79086 8 12C8 14.2091 9.79086 16 12 16V18C8.68629 18 6 15.3137 6 12C6 8.68629 8.68629 6 12 6C15.3137 6 18 8.68629 18 12C18 15.3137 15.3137 18 12 18V16C14.2091 16 16 14.2091 16 12Z" fill="#151515"/>
<path d="M3 13C3.55228 13 4 12.5523 4 12C4 11.4477 3.55228 11 3 11H1C0.447715 11 0 11.4477 0 12C0 12.5523 0.447715 13 1 13H3Z" fill="#151515"/>
<path d="M23 13C23.5523 13 24 12.5523 24 12C24 11.4477 23.5523 11 23 11H21C20.4477 11 20 11.4477 20 12C20 12.5523 20.4477 13 21 13H23Z" fill="#151515"/>
<path d="M13 21C13 20.4477 12.5523 20 12 20C11.4477 20 11 20.4477 11 21L11 23C11 23.5523 11.4477 24 12 24C12.5523 24 13 23.5523 13 23L13 21Z" fill="#151515"/>
<path d="M13 1C13 0.447715 12.5523 1.95703e-08 12 4.37114e-08C11.4477 6.78525e-08 11 0.447715 11 1L11 3C11 3.55228 11.4477 4 12 4C12.5523 4 13 3.55228 13 3L13 1Z" fill="#151515"/>
<path d="M4.92894 6.34324C5.31946 6.73377 5.95263 6.73377 6.34315 6.34324C6.73368 5.95272 6.73368 5.31955 6.34315 4.92903L4.92894 3.51482C4.53841 3.12429 3.90525 3.12429 3.51472 3.51482C3.1242 3.90534 3.1242 4.53851 3.51472 4.92903L4.92894 6.34324Z" fill="#151515"/>
<path d="M19.0711 20.4853C19.4616 20.8759 20.0948 20.8759 20.4853 20.4853C20.8758 20.0948 20.8758 19.4616 20.4853 19.0711L19.0711 17.6569C18.6806 17.2664 18.0474 17.2664 17.6569 17.6569C17.2664 18.0474 17.2664 18.6806 17.6569 19.0711L19.0711 20.4853Z" fill="#151515"/>
<path d="M6.34312 19.0709C6.73365 18.6804 6.73365 18.0473 6.34312 17.6567C5.9526 17.2662 5.31943 17.2662 4.92891 17.6567L3.51469 19.0709C3.12417 19.4615 3.12417 20.0946 3.51469 20.4852C3.90522 20.8757 4.53838 20.8757 4.92891 20.4852L6.34312 19.0709Z" fill="#151515"/>
<path d="M20.4853 4.92885C20.8758 4.53833 20.8758 3.90516 20.4853 3.51464C20.0947 3.12411 19.4616 3.12411 19.0711 3.51464L17.6568 4.92885C17.2663 5.31937 17.2663 5.95254 17.6568 6.34306C18.0474 6.73359 18.6805 6.73359 19.0711 6.34306L20.4853 4.92885Z" fill="#151515"/>
</g>
<defs>
<clipPath id="clip0_8_1876">
<rect width="24" height="24" fill="white"/>
</clipPath>
</defs>
</svg>
