<svg width="24" height="24" viewBox="0 0 24 24" fill="none" xmlns="http://www.w3.org/2000/svg">
<path d="M12 2C9.879 2.00238 7.84555 2.84602 6.34578 4.34584C4.846 5.84565 4.00238 7.87915 4 10.0002C4 13.2553 6.363 15.9584 8.866 18.8194C9.658 19.7255 10.478 20.6625 11.208 21.6105C11.3014 21.7317 11.4214 21.8298 11.5587 21.8974C11.696 21.9649 11.847 22 12 22C12.153 22 12.304 21.9649 12.4413 21.8974C12.5786 21.8298 12.6986 21.7317 12.792 21.6105C13.522 20.6625 14.342 19.7255 15.134 18.8194C17.637 15.9584 20 13.2553 20 10.0002C19.9976 7.87915 19.154 5.84565 17.6542 4.34584C16.1544 2.84602 14.121 2.00238 12 2ZM12 13.0003C11.4067 13.0003 10.8266 12.8243 10.3333 12.4947C9.83994 12.165 9.45542 11.6965 9.22836 11.1483C9.0013 10.6001 8.94189 9.99688 9.05764 9.41492C9.1734 8.83296 9.45912 8.2984 9.87868 7.87883C10.2982 7.45926 10.8328 7.17353 11.4147 7.05778C11.9967 6.94202 12.5999 7.00143 13.1481 7.2285C13.6962 7.45557 14.1648 7.84009 14.4944 8.33345C14.8241 8.82681 15 9.40685 15 10.0002C15 10.7959 14.6839 11.559 14.1213 12.1216C13.5587 12.6842 12.7956 13.0003 12 13.0003Z" fill="#160D0D"/>
</svg>
