<svg width="210" height="32" viewBox="0 0 210 32" fill="none" xmlns="http://www.w3.org/2000/svg">
<path d="M16 0C24.8366 0 32 7.16344 32 16C32 24.8366 24.8366 32 16 32C7.16344 32 0 24.8366 0 16C6.44258e-08 7.16344 7.16344 6.44299e-08 16 0ZM16 2.66699C8.6362 2.66699 2.66699 8.6362 2.66699 16C2.66699 23.3638 8.6362 29.333 16 29.333C23.3638 29.333 29.333 23.3638 29.333 16C29.333 8.6362 23.3638 2.66699 16 2.66699ZM19.4668 11.1113C21.6834 11.1114 23.5557 12.8614 23.5557 15.1113V20.8887H20.8887V15.1113C20.8887 14.4159 20.2937 13.7774 19.4668 13.7773C18.6398 13.7774 18.0439 14.4158 18.0439 15.1113V20.8887H15.3779V15.1113C15.3779 14.416 14.7828 13.7776 13.9561 13.7773C13.155 13.7773 12.571 14.3763 12.5352 15.0459L12.5332 15.1113V20.8887H9.86719V15.1113C9.86719 14.4158 9.27136 13.7773 8.44434 13.7773V11.1113C9.4943 11.1113 10.4662 11.5048 11.1992 12.1572C11.9323 11.5045 12.9058 11.1113 13.9561 11.1113C15.006 11.1114 15.978 11.5047 16.7109 12.1572C17.444 11.5046 18.4166 11.1113 19.4668 11.1113Z" fill="#160D0D"/>
<path d="M204.387 23.4751C203.322 23.4751 202.398 23.2408 201.617 22.772C200.836 22.3033 200.23 21.6475 199.799 20.8047C199.373 19.9619 199.16 18.977 199.16 17.8501C199.16 16.7232 199.373 15.736 199.799 14.8885C200.23 14.041 200.836 13.3828 201.617 12.9141C202.398 12.4453 203.322 12.2109 204.387 12.2109C205.452 12.2109 206.376 12.4453 207.157 12.9141C207.938 13.3828 208.542 14.041 208.968 14.8885C209.399 15.736 209.614 16.7232 209.614 17.8501C209.614 18.977 209.399 19.9619 208.968 20.8047C208.542 21.6475 207.938 22.3033 207.157 22.772C206.376 23.2408 205.452 23.4751 204.387 23.4751ZM204.401 21.4155C204.979 21.4155 205.462 21.2569 205.85 20.9396C206.238 20.6177 206.527 20.1868 206.717 19.647C206.911 19.1072 207.008 18.5059 207.008 17.843C207.008 17.1754 206.911 16.5717 206.717 16.032C206.527 15.4875 206.238 15.0542 205.85 14.7322C205.462 14.4103 204.979 14.2493 204.401 14.2493C203.809 14.2493 203.317 14.4103 202.924 14.7322C202.536 15.0542 202.245 15.4875 202.05 16.032C201.861 16.5717 201.766 17.1754 201.766 17.843C201.766 18.5059 201.861 19.1072 202.05 19.647C202.245 20.1868 202.536 20.6177 202.924 20.9396C203.317 21.2569 203.809 21.4155 204.401 21.4155Z" fill="#160D0D"/>
<path d="M192.148 23.2621V12.353H194.641V14.1712H194.755C194.953 13.5415 195.294 13.0562 195.777 12.7152C196.265 12.3696 196.821 12.1968 197.446 12.1968C197.588 12.1968 197.747 12.2039 197.922 12.2181C198.102 12.2276 198.251 12.2441 198.37 12.2678V14.6329C198.261 14.595 198.088 14.5618 197.851 14.5334C197.619 14.5003 197.394 14.4837 197.176 14.4837C196.708 14.4837 196.286 14.5855 195.912 14.7891C195.543 14.988 195.252 15.265 195.039 15.6201C194.826 15.9752 194.719 16.3848 194.719 16.8488V23.2621H192.148Z" fill="#160D0D"/>
<path d="M185.122 23.4751C184.028 23.4751 183.084 23.2479 182.288 22.7933C181.498 22.334 180.889 21.6854 180.463 20.8473C180.037 20.0045 179.824 19.0125 179.824 17.8714C179.824 16.7493 180.037 15.7644 180.463 14.9169C180.894 14.0646 181.495 13.4018 182.267 12.9283C183.039 12.45 183.946 12.2109 184.987 12.2109C185.66 12.2109 186.294 12.3198 186.891 12.5376C187.492 12.7507 188.022 13.0821 188.482 13.532C188.946 13.9818 189.31 14.5547 189.575 15.2507C189.84 15.942 189.973 16.7659 189.973 17.7223V18.5107H181.031V16.7777H187.509C187.504 16.2853 187.397 15.8473 187.189 15.4638C186.981 15.0755 186.689 14.7701 186.315 14.5476C185.946 14.325 185.515 14.2138 185.023 14.2138C184.497 14.2138 184.036 14.3416 183.638 14.5973C183.24 14.8482 182.93 15.1797 182.707 15.5916C182.49 15.9988 182.378 16.4463 182.374 16.9339V18.4467C182.374 19.0812 182.49 19.6257 182.722 20.0803C182.954 20.5301 183.278 20.8757 183.695 21.1172C184.111 21.3539 184.599 21.4723 185.158 21.4723C185.532 21.4723 185.87 21.4202 186.173 21.3161C186.476 21.2072 186.739 21.0485 186.962 20.8402C187.184 20.6319 187.352 20.3738 187.466 20.0661L189.866 20.3359C189.715 20.9704 189.426 21.5244 189 21.9979C188.579 22.4666 188.039 22.8312 187.381 23.0916C186.723 23.3473 185.97 23.4751 185.122 23.4751Z" fill="#160D0D"/>
<path d="M170.676 16.87V23.2621H168.105V12.353H170.562V14.2067H170.69C170.941 13.5959 171.341 13.1106 171.891 12.7507C172.445 12.3909 173.129 12.2109 173.943 12.2109C174.696 12.2109 175.352 12.3719 175.91 12.6939C176.474 13.0159 176.91 13.4822 177.217 14.093C177.53 14.7038 177.684 15.4448 177.679 16.316V23.2621H175.108V16.7138C175.108 15.9846 174.919 15.4141 174.54 15.0021C174.166 14.5902 173.647 14.3842 172.984 14.3842C172.535 14.3842 172.134 14.4837 171.784 14.6825C171.438 14.8767 171.166 15.1584 170.967 15.5277C170.773 15.897 170.676 16.3445 170.676 16.87Z" fill="#160D0D"/>
<path d="M161.079 23.4751C159.985 23.4751 159.041 23.2479 158.245 22.7933C157.455 22.334 156.846 21.6854 156.42 20.8473C155.994 20.0045 155.781 19.0125 155.781 17.8714C155.781 16.7493 155.994 15.7644 156.42 14.9169C156.851 14.0646 157.452 13.4018 158.224 12.9283C158.996 12.45 159.903 12.2109 160.944 12.2109C161.617 12.2109 162.251 12.3198 162.848 12.5376C163.449 12.7507 163.979 13.0821 164.439 13.532C164.903 13.9818 165.267 14.5547 165.532 15.2507C165.797 15.942 165.93 16.7659 165.93 17.7223V18.5107H156.988V16.7777H163.466C163.461 16.2853 163.354 15.8473 163.146 15.4638C162.938 15.0755 162.646 14.7701 162.272 14.5476C161.903 14.325 161.472 14.2138 160.98 14.2138C160.454 14.2138 159.993 14.3416 159.595 14.5973C159.197 14.8482 158.887 15.1797 158.664 15.5916C158.447 15.9988 158.335 16.4463 158.331 16.9339V18.4467C158.331 19.0812 158.447 19.6257 158.679 20.0803C158.911 20.5301 159.235 20.8757 159.652 21.1172C160.068 21.3539 160.556 21.4723 161.115 21.4723C161.489 21.4723 161.827 21.4202 162.13 21.3161C162.433 21.2072 162.696 21.0485 162.919 20.8402C163.141 20.6319 163.309 20.3738 163.423 20.0661L165.824 20.3359C165.672 20.9704 165.383 21.5244 164.957 21.9979C164.536 22.4666 163.996 22.8312 163.338 23.0916C162.68 23.3473 161.927 23.4751 161.079 23.4751Z" fill="#160D0D"/>
<path d="M138.3 23.2621V12.353H140.758V14.2067H140.886C141.113 13.5817 141.489 13.094 142.015 12.7436C142.54 12.3885 143.168 12.2109 143.897 12.2109C144.636 12.2109 145.258 12.3909 145.765 12.7507C146.276 13.1058 146.636 13.5911 146.844 14.2067H146.958C147.2 13.6006 147.607 13.1177 148.18 12.7578C148.757 12.3932 149.442 12.2109 150.232 12.2109C151.236 12.2109 152.055 12.5282 152.69 13.1626C153.324 13.7971 153.641 14.7228 153.641 15.9396V23.2621H151.063V16.3374C151.063 15.6603 150.883 15.1655 150.523 14.853C150.164 14.5357 149.723 14.3771 149.202 14.3771C148.582 14.3771 148.097 14.5713 147.746 14.9595C147.401 15.343 147.228 15.8426 147.228 16.4581V23.2621H144.707V16.2308C144.707 15.6674 144.536 15.2176 144.195 14.8814C143.859 14.5452 143.419 14.3771 142.874 14.3771C142.505 14.3771 142.169 14.4718 141.866 14.6612C141.563 14.8459 141.321 15.1087 141.141 15.4496C140.961 15.7857 140.871 16.1787 140.871 16.6285V23.2621H138.3Z" fill="#160D0D"/>
<path d="M135.657 8.71631V23.2618H133.086V8.71631H135.657Z" fill="#160D0D"/>
<path d="M125.676 23.4751C124.611 23.4751 123.688 23.2408 122.906 22.772C122.125 22.3033 121.519 21.6475 121.088 20.8047C120.662 19.9619 120.449 18.977 120.449 17.8501C120.449 16.7232 120.662 15.736 121.088 14.8885C121.519 14.041 122.125 13.3828 122.906 12.9141C123.688 12.4453 124.611 12.2109 125.676 12.2109C126.741 12.2109 127.665 12.4453 128.446 12.9141C129.227 13.3828 129.831 14.041 130.257 14.8885C130.688 15.736 130.903 16.7232 130.903 17.8501C130.903 18.977 130.688 19.9619 130.257 20.8047C129.831 21.6475 129.227 22.3033 128.446 22.772C127.665 23.2408 126.741 23.4751 125.676 23.4751ZM125.69 21.4155C126.268 21.4155 126.751 21.2569 127.139 20.9396C127.527 20.6177 127.816 20.1868 128.006 19.647C128.2 19.1072 128.297 18.5059 128.297 17.843C128.297 17.1754 128.2 16.5717 128.006 16.032C127.816 15.4875 127.527 15.0542 127.139 14.7322C126.751 14.4103 126.268 14.2493 125.69 14.2493C125.098 14.2493 124.606 14.4103 124.213 14.7322C123.825 15.0542 123.534 15.4875 123.339 16.032C123.15 16.5717 123.055 17.1754 123.055 17.843C123.055 18.5059 123.15 19.1072 123.339 19.647C123.534 20.1868 123.825 20.6177 124.213 20.9396C124.606 21.2569 125.098 21.4155 125.69 21.4155Z" fill="#160D0D"/>
<path d="M118.618 13.6241H115.962C115.886 13.1885 115.747 12.8026 115.543 12.4664C115.339 12.1255 115.086 11.8367 114.783 11.6C114.48 11.3632 114.134 11.1857 113.746 11.0673C113.363 10.9442 112.948 10.8826 112.503 10.8826C111.712 10.8826 111.012 11.0815 110.401 11.4792C109.79 11.8722 109.312 12.4499 108.966 13.2122C108.621 13.9698 108.448 14.8954 108.448 15.9892C108.448 17.1019 108.621 18.0394 108.966 18.8017C109.317 19.5592 109.795 20.1322 110.401 20.5204C111.012 20.9039 111.71 21.0957 112.496 21.0957C112.932 21.0957 113.339 21.0389 113.718 20.9253C114.101 20.8069 114.444 20.6341 114.748 20.4068C115.055 20.1795 115.313 19.9002 115.522 19.5687C115.735 19.2373 115.882 18.8585 115.962 18.4324L118.618 18.4466C118.519 19.1378 118.303 19.7865 117.972 20.3926C117.645 20.9986 117.217 21.5337 116.686 21.9977C116.156 22.457 115.536 22.8168 114.826 23.0772C114.115 23.3329 113.327 23.4608 112.461 23.4608C111.182 23.4608 110.041 23.1648 109.037 22.573C108.033 21.9811 107.243 21.1265 106.665 20.0091C106.087 18.8916 105.799 17.5517 105.799 15.9892C105.799 14.4219 106.09 13.082 106.672 11.9693C107.255 10.8519 108.048 9.99722 109.051 9.40536C110.055 8.81351 111.192 8.51758 112.461 8.51758C113.27 8.51758 114.023 8.63121 114.719 8.85849C115.415 9.08576 116.035 9.41957 116.58 9.85991C117.124 10.2955 117.572 10.8306 117.922 11.465C118.277 12.0948 118.509 12.8145 118.618 13.6241Z" fill="#160D0D"/>
<path d="M92.7482 23.4822C92.0569 23.4822 91.4343 23.3591 90.8803 23.1129C90.3311 22.862 89.8955 22.4927 89.5735 22.005C89.2563 21.5173 89.0977 20.916 89.0977 20.201C89.0977 19.5855 89.2113 19.0765 89.4386 18.674C89.6658 18.2715 89.976 17.9496 90.369 17.7081C90.762 17.4666 91.2047 17.2843 91.6971 17.1612C92.1942 17.0334 92.708 16.941 93.2383 16.8842C93.8775 16.8179 94.396 16.7588 94.7937 16.7067C95.1914 16.6499 95.4802 16.5646 95.6602 16.451C95.8448 16.3326 95.9371 16.1503 95.9371 15.9041V15.8615C95.9371 15.3265 95.7785 14.9122 95.4613 14.6186C95.1441 14.325 94.6871 14.1783 94.0906 14.1783C93.4608 14.1783 92.9613 14.3156 92.592 14.5902C92.2274 14.8648 91.9812 15.1892 91.8533 15.5632L89.4528 15.2223C89.6422 14.5594 89.9547 14.0054 90.3903 13.5604C90.8259 13.1106 91.3585 12.7744 91.9883 12.5518C92.618 12.3246 93.314 12.2109 94.0764 12.2109C94.6019 12.2109 95.1251 12.2725 95.646 12.3956C96.1668 12.5187 96.6426 12.7223 97.0735 13.0064C97.5044 13.2857 97.85 13.6669 98.1104 14.1499C98.3756 14.6328 98.5082 15.2365 98.5082 15.9609V23.2621H96.0366V21.7635H95.9514C95.7951 22.0665 95.5749 22.3506 95.2908 22.6158C95.0115 22.8762 94.6587 23.0869 94.2326 23.2479C93.8112 23.4041 93.3164 23.4822 92.7482 23.4822ZM93.4158 21.593C93.9319 21.593 94.3794 21.4912 94.7582 21.2876C95.137 21.0793 95.4281 20.8047 95.6317 20.4638C95.8401 20.1229 95.9442 19.7512 95.9442 19.3487V18.0632C95.8638 18.1295 95.7264 18.191 95.5323 18.2479C95.3429 18.3047 95.1299 18.3544 94.8931 18.397C94.6564 18.4396 94.422 18.4775 94.19 18.5107C93.958 18.5438 93.7567 18.5722 93.5863 18.5959C93.2028 18.648 92.8595 18.7332 92.5565 18.8516C92.2534 18.9699 92.0143 19.1357 91.8391 19.3487C91.6639 19.5571 91.5764 19.8269 91.5764 20.1584C91.5764 20.6319 91.7492 20.9893 92.0948 21.2308C92.4405 21.4723 92.8808 21.593 93.4158 21.593Z" fill="#160D0D"/>
<path d="M87.4588 12.3529V14.3415H81.1875V12.3529H87.4588ZM82.7358 9.73926H85.3068V19.9807C85.3068 20.3264 85.3589 20.5915 85.4631 20.7762C85.572 20.9561 85.714 21.0792 85.8892 21.1455C86.0644 21.2118 86.2585 21.2449 86.4716 21.2449C86.6326 21.2449 86.7794 21.2331 86.9119 21.2094C87.0492 21.1858 87.1534 21.1644 87.2244 21.1455L87.6577 23.1555C87.5204 23.2028 87.3239 23.2549 87.0682 23.3117C86.8172 23.3685 86.5095 23.4017 86.1449 23.4111C85.5009 23.4301 84.9209 23.333 84.4048 23.1199C83.8887 22.9021 83.4792 22.566 83.1761 22.1114C82.8778 21.6569 82.7311 21.0887 82.7358 20.4069V9.73926Z" fill="#160D0D"/>
<path d="M73.4957 23.2621V12.353H75.9886V14.1712H76.1023C76.3011 13.5415 76.642 13.0562 77.125 12.7152C77.6127 12.3696 78.169 12.1968 78.794 12.1968C78.9361 12.1968 79.0947 12.2039 79.2699 12.2181C79.4498 12.2276 79.599 12.2441 79.7173 12.2678V14.6329C79.6084 14.595 79.4356 14.5618 79.1989 14.5334C78.9669 14.5003 78.7419 14.4837 78.5241 14.4837C78.0554 14.4837 77.634 14.5855 77.2599 14.7891C76.8906 14.988 76.5994 15.265 76.3864 15.6201C76.1733 15.9752 76.0668 16.3848 76.0668 16.8488V23.2621H73.4957Z" fill="#160D0D"/>
<path d="M65.1506 23.4822C64.4593 23.4822 63.8366 23.3591 63.2827 23.1129C62.7334 22.862 62.2978 22.4927 61.9759 22.005C61.6586 21.5173 61.5 20.916 61.5 20.201C61.5 19.5855 61.6136 19.0765 61.8409 18.674C62.0682 18.2715 62.3783 17.9496 62.7713 17.7081C63.1643 17.4666 63.607 17.2843 64.0994 17.1612C64.5966 17.0334 65.1103 16.941 65.6406 16.8842C66.2798 16.8179 66.7983 16.7588 67.196 16.7067C67.5937 16.6499 67.8826 16.5646 68.0625 16.451C68.2472 16.3326 68.3395 16.1503 68.3395 15.9041V15.8615C68.3395 15.3265 68.1809 14.9122 67.8636 14.6186C67.5464 14.325 67.0895 14.1783 66.4929 14.1783C65.8632 14.1783 65.3636 14.3156 64.9943 14.5902C64.6297 14.8648 64.3835 15.1892 64.2557 15.5632L61.8551 15.2223C62.0445 14.5594 62.357 14.0054 62.7926 13.5604C63.2282 13.1106 63.7609 12.7744 64.3906 12.5518C65.0204 12.3246 65.7164 12.2109 66.4787 12.2109C67.0043 12.2109 67.5275 12.2725 68.0483 12.3956C68.5691 12.5187 69.045 12.7223 69.4759 13.0064C69.9067 13.2857 70.2524 13.6669 70.5128 14.1499C70.7779 14.6328 70.9105 15.2365 70.9105 15.9609V23.2621H68.4389V21.7635H68.3537C68.1974 22.0665 67.9773 22.3506 67.6932 22.6158C67.4138 22.8762 67.0611 23.0869 66.6349 23.2479C66.2135 23.4041 65.7187 23.4822 65.1506 23.4822ZM65.8182 21.593C66.3343 21.593 66.7817 21.4912 67.1605 21.2876C67.5393 21.0793 67.8305 20.8047 68.0341 20.4638C68.2424 20.1229 68.3466 19.7512 68.3466 19.3487V18.0632C68.2661 18.1295 68.1288 18.191 67.9347 18.2479C67.7453 18.3047 67.5322 18.3544 67.2955 18.397C67.0587 18.4396 66.8243 18.4775 66.5923 18.5107C66.3603 18.5438 66.1591 18.5722 65.9886 18.5959C65.6051 18.648 65.2618 18.7332 64.9588 18.8516C64.6558 18.9699 64.4167 19.1357 64.2415 19.3487C64.0663 19.5571 63.9787 19.8269 63.9787 20.1584C63.9787 20.6319 64.1515 20.9893 64.4972 21.2308C64.8428 21.4723 65.2831 21.593 65.8182 21.593Z" fill="#160D0D"/>
<path d="M44 8.71631H47.2244L51.5426 19.2561H51.7131L56.0312 8.71631H59.2557V23.2618H56.7273V13.2689H56.5923L52.5724 23.2191H50.6832L46.6633 13.2476H46.5284V23.2618H44V8.71631Z" fill="#160D0D"/>
</svg>
