<svg width="182" height="28" viewBox="0 0 182 28" fill="none" xmlns="http://www.w3.org/2000/svg">
<path fill-rule="evenodd" clip-rule="evenodd" d="M13.8922 0C21.5646 0 27.7844 6.26801 27.7844 14C27.7844 21.732 21.5646 28 13.8922 28C6.21974 28 0 21.732 0 14C0 6.26801 6.21974 0 13.8922 0ZM16.9023 9.72241C15.9904 9.72243 15.146 10.0665 14.5095 10.6376C13.8731 10.0667 13.0291 9.72252 12.1175 9.72241C11.2056 9.72241 10.3604 10.0664 9.72385 10.6376C9.08737 10.0667 8.24354 9.72241 7.33189 9.72241V12.0552C8.04996 12.0552 8.56729 12.6138 8.56729 13.2224V18.2776H10.8821V13.2224L10.8838 13.1652C10.9149 12.5792 11.4219 12.0552 12.1175 12.0552C12.8353 12.0554 13.3521 12.614 13.3521 13.2224V18.2776H15.6669V13.2224C15.6669 12.6139 16.1842 12.0552 16.9023 12.0552C17.6202 12.0553 18.1368 12.6139 18.1368 13.2224V18.2776H20.4525V13.2224C20.4525 11.2537 18.8268 9.72251 16.9023 9.72241Z" fill="#160D0D"/>
<path d="M177.461 20.5407C176.536 20.5407 175.735 20.3357 175.056 19.9255C174.378 19.5153 173.852 18.9415 173.478 18.2041C173.108 17.4666 172.923 16.6049 172.923 15.6189C172.923 14.6328 173.108 13.769 173.478 13.0274C173.852 12.2858 174.378 11.7099 175.056 11.2998C175.735 10.8896 176.536 10.6846 177.461 10.6846C178.386 10.6846 179.188 10.8896 179.866 11.2998C180.545 11.7099 181.069 12.2858 181.439 13.0274C181.813 13.769 182 14.6328 182 15.6189C182 16.6049 181.813 17.4666 181.439 18.2041C181.069 18.9415 180.545 19.5153 179.866 19.9255C179.188 20.3357 178.386 20.5407 177.461 20.5407ZM177.474 18.7385C177.975 18.7385 178.395 18.5997 178.732 18.3222C179.069 18.0404 179.32 17.6634 179.484 17.1911C179.653 16.7188 179.737 16.1927 179.737 15.6126C179.737 15.0285 179.653 14.5002 179.484 14.0279C179.32 13.5515 179.069 13.1724 178.732 12.8907C178.395 12.609 177.975 12.4681 177.474 12.4681C176.96 12.4681 176.532 12.609 176.191 12.8907C175.854 13.1724 175.601 13.5515 175.433 14.0279C175.268 14.5002 175.186 15.0285 175.186 15.6126C175.186 16.1927 175.268 16.7188 175.433 17.1911C175.601 17.6634 175.854 18.0404 176.191 18.3222C176.532 18.5997 176.96 18.7385 177.474 18.7385Z" fill="#160D0D"/>
<path d="M166.835 20.3543V10.8088H168.999V12.3997H169.098C169.271 11.8487 169.567 11.4241 169.986 11.1258C170.409 10.8233 170.892 10.6721 171.435 10.6721C171.558 10.6721 171.696 10.6783 171.848 10.6908C172.004 10.6991 172.134 10.7136 172.237 10.7343V12.8037C172.142 12.7705 171.992 12.7415 171.787 12.7167C171.585 12.6877 171.39 12.6732 171.201 12.6732C170.794 12.6732 170.428 12.7623 170.103 12.9404C169.782 13.1144 169.53 13.3568 169.345 13.6675C169.16 13.9782 169.067 14.3366 169.067 14.7426V20.3543H166.835Z" fill="#160D0D"/>
<path d="M160.734 20.5407C159.785 20.5407 158.965 20.3419 158.274 19.9441C157.587 19.5423 157.059 18.9747 156.689 18.2414C156.319 17.5039 156.134 16.636 156.134 15.6375C156.134 14.6556 156.319 13.7939 156.689 13.0523C157.063 12.3065 157.585 11.7265 158.255 11.3122C158.926 10.8938 159.713 10.6846 160.617 10.6846C161.201 10.6846 161.752 10.7798 162.27 10.9704C162.792 11.1569 163.252 11.4469 163.651 11.8404C164.054 12.234 164.371 12.7353 164.601 13.3444C164.831 13.9492 164.946 14.6701 164.946 15.507V16.1968H157.182V14.6805H162.806C162.802 14.2496 162.71 13.8664 162.529 13.5308C162.348 13.1911 162.095 12.9238 161.77 12.7291C161.45 12.5344 161.076 12.437 160.648 12.437C160.192 12.437 159.791 12.5489 159.446 12.7726C159.1 12.9922 158.831 13.2822 158.638 13.6426C158.449 13.9989 158.352 14.3905 158.348 14.8172V16.1409C158.348 16.696 158.449 17.1725 158.65 17.5702C158.852 17.9638 159.133 18.2662 159.495 18.4775C159.857 18.6847 160.28 18.7882 160.765 18.7882C161.09 18.7882 161.384 18.7427 161.647 18.6515C161.91 18.5562 162.138 18.4174 162.332 18.2352C162.525 18.0529 162.671 17.8271 162.769 17.5578L164.854 17.7939C164.722 18.3491 164.471 18.8338 164.101 19.2481C163.735 19.6583 163.267 19.9773 162.695 20.2051C162.124 20.4289 161.47 20.5407 160.734 20.5407Z" fill="#160D0D"/>
<path d="M148.191 14.7613V20.3543H145.959V10.8088H148.093V12.4308H148.204C148.422 11.8964 148.769 11.4717 149.246 11.1569C149.727 10.842 150.321 10.6846 151.028 10.6846C151.682 10.6846 152.251 10.8254 152.736 11.1071C153.225 11.3889 153.604 11.7969 153.871 12.3314C154.142 12.8658 154.276 13.5142 154.272 14.2765V20.3543H152.039V14.6245C152.039 13.9865 151.875 13.4873 151.546 13.1268C151.221 12.7664 150.771 12.5862 150.196 12.5862C149.805 12.5862 149.458 12.6732 149.153 12.8472C148.853 13.0171 148.617 13.2636 148.444 13.5867C148.276 13.9099 148.191 14.3014 148.191 14.7613Z" fill="#160D0D"/>
<path d="M139.859 20.5407C138.909 20.5407 138.089 20.3419 137.398 19.9441C136.712 19.5423 136.183 18.9747 135.813 18.2414C135.443 17.5039 135.258 16.636 135.258 15.6375C135.258 14.6556 135.443 13.7939 135.813 13.0523C136.188 12.3065 136.71 11.7265 137.38 11.3122C138.05 10.8938 138.837 10.6846 139.742 10.6846C140.325 10.6846 140.876 10.7798 141.394 10.9704C141.916 11.1569 142.377 11.4469 142.776 11.8404C143.179 12.234 143.495 12.7353 143.725 13.3444C143.955 13.9492 144.071 14.6701 144.071 15.507V16.1968H136.307V14.6805H141.931C141.927 14.2496 141.834 13.8664 141.653 13.5308C141.472 13.1911 141.22 12.9238 140.895 12.7291C140.574 12.5344 140.2 12.437 139.772 12.437C139.316 12.437 138.915 12.5489 138.57 12.7726C138.225 12.9922 137.955 13.2822 137.762 13.6426C137.573 13.9989 137.476 14.3905 137.472 14.8172V16.1409C137.472 16.696 137.573 17.1725 137.774 17.5702C137.976 17.9638 138.258 18.2662 138.619 18.4775C138.981 18.6847 139.405 18.7882 139.89 18.7882C140.214 18.7882 140.508 18.7427 140.771 18.6515C141.035 18.5562 141.263 18.4174 141.456 18.2352C141.649 18.0529 141.795 17.8271 141.894 17.5578L143.978 17.7939C143.847 18.3491 143.596 18.8338 143.226 19.2481C142.86 19.6583 142.391 19.9773 141.82 20.2051C141.248 20.4289 140.595 20.5407 139.859 20.5407Z" fill="#160D0D"/>
<path d="M120.081 20.3543V10.8088H122.215V12.4308H122.326C122.523 11.8839 122.85 11.4572 123.306 11.1506C123.762 10.8399 124.307 10.6846 124.94 10.6846C125.582 10.6846 126.122 10.842 126.562 11.1569C127.006 11.4676 127.318 11.8922 127.499 12.4308H127.598C127.808 11.9005 128.161 11.4779 128.659 11.1631C129.16 10.8441 129.754 10.6846 130.441 10.6846C131.312 10.6846 132.024 10.9621 132.574 11.5173C133.125 12.0725 133.401 12.8824 133.401 13.9472V20.3543H131.162V14.2952C131.162 13.7027 131.006 13.2698 130.694 12.9963C130.381 12.7188 129.999 12.58 129.547 12.58C129.008 12.58 128.587 12.7498 128.282 13.0896C127.982 13.4251 127.832 13.8622 127.832 14.4008V20.3543H125.643V14.202C125.643 13.7089 125.495 13.3154 125.199 13.0212C124.907 12.727 124.525 12.58 124.052 12.58C123.732 12.58 123.44 12.6628 123.177 12.8285C122.913 12.9901 122.704 13.2201 122.548 13.5184C122.391 13.8125 122.313 14.1564 122.313 14.55V20.3543H120.081Z" fill="#160D0D"/>
<path d="M117.785 7.62702V20.3543H115.553V7.62702H117.785Z" fill="#160D0D"/>
<path d="M109.12 20.5407C108.195 20.5407 107.393 20.3357 106.715 19.9255C106.036 19.5153 105.51 18.9415 105.136 18.2041C104.766 17.4666 104.581 16.6049 104.581 15.6189C104.581 14.6328 104.766 13.769 105.136 13.0274C105.51 12.2858 106.036 11.7099 106.715 11.2998C107.393 10.8896 108.195 10.6846 109.12 10.6846C110.045 10.6846 110.846 10.8896 111.525 11.2998C112.203 11.7099 112.727 12.2858 113.097 13.0274C113.471 13.769 113.658 14.6328 113.658 15.6189C113.658 16.6049 113.471 17.4666 113.097 18.2041C112.727 18.9415 112.203 19.5153 111.525 19.9255C110.846 20.3357 110.045 20.5407 109.12 20.5407ZM109.132 18.7385C109.634 18.7385 110.053 18.5997 110.39 18.3222C110.727 18.0404 110.978 17.6634 111.142 17.1911C111.311 16.7188 111.395 16.1927 111.395 15.6126C111.395 15.0285 111.311 14.5002 111.142 14.0279C110.978 13.5515 110.727 13.1724 110.39 12.8907C110.053 12.609 109.634 12.4681 109.132 12.4681C108.618 12.4681 108.191 12.609 107.849 12.8907C107.512 13.1724 107.259 13.5515 107.091 14.0279C106.926 14.5002 106.844 15.0285 106.844 15.6126C106.844 16.1927 106.926 16.7188 107.091 17.1911C107.259 17.6634 107.512 18.0404 107.849 18.3222C108.191 18.5997 108.618 18.7385 109.132 18.7385Z" fill="#160D0D"/>
<path d="M102.992 11.9212H100.685C100.62 11.5401 100.498 11.2024 100.321 10.9083C100.145 10.61 99.9248 10.3573 99.6617 10.1501C99.3985 9.94295 99.0984 9.78759 98.7613 9.68402C98.4283 9.5763 98.0686 9.52244 97.6822 9.52244C96.9956 9.52244 96.3872 9.69645 95.8568 10.0445C95.3265 10.3883 94.9113 10.8938 94.6112 11.5608C94.3111 12.2237 94.161 13.0336 94.161 13.9907C94.161 14.9643 94.3111 15.7846 94.6112 16.4516C94.9154 17.1145 95.3306 17.6158 95.8568 17.9555C96.3872 18.2911 96.9936 18.4589 97.676 18.4589C98.0542 18.4589 98.4078 18.4092 98.7367 18.3097C99.0697 18.2062 99.3677 18.0549 99.6308 17.8561C99.898 17.6572 100.122 17.4128 100.303 17.1228C100.488 16.8328 100.615 16.5013 100.685 16.1284L102.992 16.1409C102.905 16.7458 102.718 17.3133 102.43 17.8436C102.147 18.3739 101.775 18.8421 101.314 19.2481C100.854 19.65 100.315 19.9649 99.6987 20.1927C99.082 20.4164 98.3975 20.5283 97.6452 20.5283C96.5352 20.5283 95.5444 20.2694 94.6728 19.7515C93.8013 19.2336 93.1147 18.4858 92.6132 17.5081C92.1116 16.5303 91.8609 15.3578 91.8609 13.9907C91.8609 12.6193 92.1137 11.4469 92.6194 10.4733C93.125 9.49551 93.8136 8.7477 94.6852 8.22983C95.5567 7.71195 96.5434 7.45302 97.6452 7.45302C98.3482 7.45302 99.0018 7.55245 99.6062 7.75131C100.21 7.95018 100.749 8.24226 101.222 8.62755C101.695 9.00871 102.083 9.47687 102.387 10.032C102.696 10.583 102.897 11.2128 102.992 11.9212Z" fill="#160D0D"/>
<path d="M80.5297 20.5469C79.9295 20.5469 79.3889 20.4392 78.9079 20.2238C78.431 20.0042 78.0528 19.6811 77.7732 19.2543C77.4978 18.8276 77.3601 18.3014 77.3601 17.6759C77.3601 17.1373 77.4587 16.6919 77.6561 16.3397C77.8534 15.9876 78.1227 15.7059 78.4639 15.4946C78.8051 15.2833 79.1895 15.1238 79.617 15.016C80.0487 14.9042 80.4948 14.8234 80.9552 14.7737C81.5102 14.7157 81.9604 14.6639 82.3057 14.6183C82.651 14.5686 82.9018 14.494 83.058 14.3946C83.2183 14.291 83.2985 14.1315 83.2985 13.9161V13.8788C83.2985 13.4106 83.1608 13.0481 82.8853 12.7913C82.6099 12.5344 82.2132 12.406 81.6952 12.406C81.1484 12.406 80.7147 12.5261 80.394 12.7664C80.0775 13.0067 79.8637 13.2905 79.7527 13.6178L77.6684 13.3195C77.8328 12.7395 78.1042 12.2547 78.4824 11.8653C78.8606 11.4717 79.3231 11.1776 79.8699 10.9828C80.4166 10.784 81.021 10.6846 81.6829 10.6846C82.1392 10.6846 82.5935 10.7384 83.0457 10.8461C83.4979 10.9538 83.9111 11.132 84.2852 11.3806C84.6593 11.625 84.9594 11.9585 85.1855 12.3811C85.4157 12.8037 85.5308 13.3319 85.5308 13.9658V20.3543H83.3848V19.043H83.3108C83.1752 19.3082 82.984 19.5568 82.7374 19.7888C82.4948 20.0166 82.1885 20.201 81.8185 20.3419C81.4526 20.4786 81.023 20.5469 80.5297 20.5469ZM81.1094 18.8939C81.5575 18.8939 81.946 18.8048 82.2748 18.6267C82.6037 18.4444 82.8566 18.2041 83.0333 17.9058C83.2142 17.6075 83.3047 17.2823 83.3047 16.9301V15.8053C83.2348 15.8633 83.1156 15.9171 82.947 15.9669C82.7826 16.0166 82.5976 16.0601 82.392 16.0974C82.1865 16.1347 81.983 16.1678 81.7815 16.1968C81.5801 16.2258 81.4054 16.2507 81.2574 16.2714C80.9244 16.317 80.6263 16.3915 80.3632 16.4951C80.1001 16.5987 79.8925 16.7437 79.7404 16.9301C79.5883 17.1124 79.5122 17.3486 79.5122 17.6386C79.5122 18.0529 79.6623 18.3657 79.9624 18.577C80.2625 18.7882 80.6448 18.8939 81.1094 18.8939Z" fill="#160D0D"/>
<path d="M75.9371 10.8088V12.5489H70.492V10.8088H75.9371ZM71.8363 8.52191H74.0686V17.4832C74.0686 17.7856 74.1138 18.0176 74.2043 18.1792C74.2988 18.3367 74.4222 18.4444 74.5743 18.5024C74.7264 18.5604 74.8949 18.5894 75.0799 18.5894C75.2197 18.5894 75.3472 18.579 75.4623 18.5583C75.5815 18.5376 75.6719 18.5189 75.7336 18.5024L76.1098 20.2611C75.9905 20.3025 75.8199 20.3481 75.5979 20.3978C75.3801 20.4475 75.1128 20.4765 74.7963 20.4848C74.2372 20.5014 73.7336 20.4164 73.2855 20.23C72.8373 20.0394 72.4817 19.7453 72.2186 19.3475C71.9596 18.9498 71.8322 18.4527 71.8363 17.8561V8.52191Z" fill="#160D0D"/>
<path d="M63.8135 20.3543V10.8088H65.978V12.3997H66.0767C66.2493 11.8487 66.5453 11.4241 66.9647 11.1258C67.3881 10.8233 67.8712 10.6721 68.4138 10.6721C68.5372 10.6721 68.6749 10.6783 68.827 10.6908C68.9832 10.6991 69.1127 10.7136 69.2155 10.7343V12.8037C69.1209 12.7705 68.9709 12.7415 68.7653 12.7167C68.5639 12.6877 68.3686 12.6732 68.1795 12.6732C67.7725 12.6732 67.4066 12.7623 67.0818 12.9404C66.7612 13.1144 66.5083 13.3568 66.3233 13.6675C66.1383 13.9782 66.0458 14.3366 66.0458 14.7426V20.3543H63.8135Z" fill="#160D0D"/>
<path d="M56.5677 20.5469C55.9675 20.5469 55.4269 20.4392 54.9459 20.2238C54.469 20.0042 54.0908 19.6811 53.8112 19.2543C53.5358 18.8276 53.3981 18.3014 53.3981 17.6759C53.3981 17.1373 53.4967 16.6919 53.6941 16.3397C53.8914 15.9876 54.1607 15.7059 54.5019 15.4946C54.8431 15.2833 55.2275 15.1238 55.6551 15.016C56.0867 14.9042 56.5328 14.8234 56.9932 14.7737C57.5482 14.7157 57.9984 14.6639 58.3437 14.6183C58.689 14.5686 58.9398 14.494 59.096 14.3946C59.2564 14.291 59.3365 14.1315 59.3365 13.9161V13.8788C59.3365 13.4106 59.1988 13.0481 58.9234 12.7913C58.6479 12.5344 58.2512 12.406 57.7332 12.406C57.1864 12.406 56.7527 12.5261 56.4321 12.7664C56.1155 13.0067 55.9017 13.2905 55.7907 13.6178L53.7064 13.3195C53.8709 12.7395 54.1422 12.2547 54.5204 11.8653C54.8986 11.4717 55.3611 11.1776 55.9079 10.9828C56.4547 10.784 57.059 10.6846 57.7209 10.6846C58.1772 10.6846 58.6315 10.7384 59.0837 10.8461C59.5359 10.9538 59.9491 11.132 60.3232 11.3806C60.6973 11.625 60.9974 11.9585 61.2235 12.3811C61.4538 12.8037 61.5689 13.3319 61.5689 13.9658V20.3543H59.4229V19.043H59.3489C59.2132 19.3082 59.022 19.5568 58.7754 19.7888C58.5328 20.0166 58.2265 20.201 57.8565 20.3419C57.4907 20.4786 57.0611 20.5469 56.5677 20.5469ZM57.1474 18.8939C57.5955 18.8939 57.984 18.8048 58.3129 18.6267C58.6418 18.4444 58.8946 18.2041 59.0714 17.9058C59.2523 17.6075 59.3427 17.2823 59.3427 16.9301V15.8053C59.2728 15.8633 59.1536 15.9171 58.985 15.9669C58.8206 16.0166 58.6356 16.0601 58.43 16.0974C58.2245 16.1347 58.021 16.1678 57.8196 16.1968C57.6181 16.2258 57.4434 16.2507 57.2954 16.2714C56.9624 16.317 56.6643 16.3915 56.4012 16.4951C56.1381 16.5987 55.9305 16.7437 55.7784 16.9301C55.6263 17.1124 55.5502 17.3486 55.5502 17.6386C55.5502 18.0529 55.7003 18.3657 56.0004 18.577C56.3005 18.7882 56.6828 18.8939 57.1474 18.8939Z" fill="#160D0D"/>
<path d="M38.2035 7.62702H41.0032L44.7525 16.8493H44.9005L48.6498 7.62702H51.4494V20.3543H49.2541V11.6105H49.1369L45.6466 20.317H44.0063L40.516 11.5919H40.3988V20.3543H38.2035V7.62702Z" fill="#160D0D"/>
</svg>
