<svg width="48" height="40" viewBox="0 0 48 40" fill="none" xmlns="http://www.w3.org/2000/svg">
<path d="M8.99988 24.9492C10.1817 23.9548 11.6817 23.4576 13.4999 23.4576C15.4999 23.4576 17.3181 24.1356 18.9544 25.4915C20.5908 26.8475 21.409 28.7006 21.409 31.0508C21.409 33.5819 20.5453 35.7062 18.8181 37.4237C17.0908 39.1412 14.8181 40 11.9999 40C8.09079 40 5.09079 38.5537 2.99988 35.661C0.999878 32.678 -0.00012207 29.2881 -0.00012207 25.4915C-0.00012207 20.1582 1.54533 15.2316 4.63624 10.7119C7.72715 6.19209 12.4544 2.62147 18.8181 0L20.9999 3.93221C18.909 4.83616 16.8635 6.1017 14.8635 7.72882C12.8635 9.26554 11.1817 11.0734 9.81806 13.1525C8.54533 15.2316 7.90897 17.4915 7.90897 19.9322C7.90897 20.7458 7.95442 21.5593 8.04533 22.3729C8.22715 23.1864 8.54533 24.0452 8.99988 24.9492ZM35.5908 24.9492C36.7726 23.9548 38.2726 23.4576 40.0908 23.4576C42.0908 23.4576 43.909 24.1356 45.5453 25.4915C47.1817 26.8475 47.9999 28.7006 47.9999 31.0508C47.9999 33.5819 47.1362 35.7062 45.409 37.4237C43.6817 39.1412 41.409 40 38.5908 40C34.6817 40 31.6817 38.5537 29.5908 35.661C27.5908 32.678 26.5908 29.2881 26.5908 25.4915C26.5908 20.1582 28.1362 15.2316 31.2271 10.7119C34.3181 6.19209 39.0453 2.62147 45.409 0L47.5908 3.93221C45.4999 4.83616 43.4544 6.1017 41.4544 7.72882C39.4544 9.26554 37.7726 11.0734 36.409 13.1525C35.1362 15.2316 34.4999 17.4915 34.4999 19.9322C34.4999 20.7458 34.5453 21.5593 34.6362 22.3729C34.8181 23.1864 35.1362 24.0452 35.5908 24.9492Z" fill="#FF824D"/>
</svg>
