<svg width="120" height="120" viewBox="0 0 120 120" fill="none" xmlns="http://www.w3.org/2000/svg">
<g clip-path="url(#clip0_11_2289)">
<circle cx="60" cy="60" r="40" fill="#E8DBD8"/>
<path d="M80.9765 114.056C72.3354 110.715 59.4897 93.1756 63.7791 73.0527C69.1408 47.8992 92.4071 41.5246 95.5093 59.5919C98.7399 78.4066 56.8317 97.291 31.238 68.3898C10.763 45.2688 21.3444 21.2456 29.1945 12.1241" stroke="url(#paint0_linear_11_2289)" stroke-width="4" stroke-linecap="round"/>
<path d="M115.215 19.9438L100.056 4.78488C99.0091 3.73837 97.3124 3.73837 96.2659 4.78488L51.217 49.8338L47.5171 70.1564C47.2668 71.5314 48.468 72.7326 49.843 72.4823L70.1656 68.7824L115.215 23.7335C116.261 22.687 116.261 20.9903 115.215 19.9438Z" fill="#C3B5B2"/>
<path d="M110.999 15.5146L63.4967 61.9111L56.0854 66.5717C53.7398 68.047 50.9601 65.4221 52.3907 63.0828L57.4863 54.752L104.329 9L110.999 15.5146Z" fill="#E8DBD8"/>
<path d="M57.4052 71L48.9994 62.5939L51.3196 50L69.9994 68.6806L57.4052 71Z" fill="#FBF8F7"/>
<path d="M49.8546 72.4741C48.4766 72.7279 47.2715 71.5228 47.5253 70.1448L49.0257 62L57.9994 70.9737L49.8546 72.4741Z" fill="#FF824D"/>
</g>
<defs>
<linearGradient id="paint0_linear_11_2289" x1="41" y1="69.5002" x2="41" y2="26.5002" gradientUnits="userSpaceOnUse">
<stop stop-color="#FF824D"/>
<stop offset="1" stop-color="#FFAB88"/>
</linearGradient>
<clipPath id="clip0_11_2289">
<rect width="120" height="120" fill="white"/>
</clipPath>
</defs>
</svg>
