<svg width="76" height="40" viewBox="0 0 76 40" fill="none" xmlns="http://www.w3.org/2000/svg">
<g clip-path="url(#clip0_82_1606)">
<path d="M56 0H20C8.9543 0 0 8.9543 0 20C0 31.0457 8.9543 40 20 40H56C67.0457 40 76 31.0457 76 20C76 8.9543 67.0457 0 56 0Z" fill="#332A2A"/>
<path d="M36 20C36 11.1634 28.8366 4 20 4C11.1634 4 4 11.1634 4 20C4 28.8366 11.1634 36 20 36C28.8366 36 36 28.8366 36 20Z" fill="white"/>
<mask id="mask0_82_1606" style="mask-type:luminance" maskUnits="userSpaceOnUse" x="12" y="12" width="16" height="16">
<path d="M28 12H12V28H28V12Z" fill="white"/>
</mask>
<g mask="url(#mask0_82_1606)">
<path d="M22.6667 20C22.6667 18.5272 21.4728 17.3333 20 17.3333C18.5272 17.3333 17.3333 18.5272 17.3333 20C17.3333 21.4728 18.5272 22.6667 20 22.6667V24C17.7909 24 16 22.2091 16 20C16 17.7909 17.7909 16 20 16C22.2091 16 24 17.7909 24 20C24 22.2091 22.2091 24 20 24V22.6667C21.4728 22.6667 22.6667 21.4728 22.6667 20Z" fill="#160D0D"/>
<path d="M14 20.6666C14.3682 20.6666 14.6667 20.3681 14.6667 20C14.6667 19.6318 14.3682 19.3333 14 19.3333H12.6667C12.2985 19.3333 12 19.6318 12 20C12 20.3681 12.2985 20.6666 12.6667 20.6666H14Z" fill="#160D0D"/>
<path d="M27.334 20.6666C27.7022 20.6666 28.0007 20.3681 28.0007 20C28.0007 19.6318 27.7022 19.3333 27.334 19.3333H26.0007C25.6325 19.3333 25.334 19.6318 25.334 20C25.334 20.3681 25.6325 20.6666 26.0007 20.6666H27.334Z" fill="#160D0D"/>
<path d="M20.6674 26C20.6674 25.6318 20.3689 25.3333 20.0007 25.3333C19.6325 25.3333 19.334 25.6318 19.334 26V27.3333C19.334 27.7015 19.6325 28 20.0007 28C20.3689 28 20.6674 27.7015 20.6674 27.3333V26Z" fill="#160D0D"/>
<path d="M20.6674 12.6666C20.6674 12.2984 20.3689 12 20.0007 12C19.6325 12 19.334 12.2984 19.334 12.6666V14C19.334 14.3681 19.6325 14.6666 20.0007 14.6666C20.3689 14.6666 20.6674 14.3681 20.6674 14V12.6666Z" fill="#160D0D"/>
<path d="M15.2865 16.2288C15.5469 16.4891 15.969 16.4891 16.2293 16.2288C16.4897 15.9684 16.4897 15.5463 16.2293 15.286L15.2865 14.3432C15.0262 14.0828 14.6041 14.0828 14.3437 14.3432C14.0834 14.6035 14.0834 15.0256 14.3437 15.286L15.2865 16.2288Z" fill="#160D0D"/>
<path d="M24.7142 25.6569C24.9746 25.9172 25.3967 25.9172 25.657 25.6569C25.9174 25.3965 25.9174 24.9744 25.657 24.7141L24.7142 23.7713C24.4539 23.5109 24.0318 23.5109 23.7714 23.7713C23.5111 24.0316 23.5111 24.4537 23.7714 24.7141L24.7142 25.6569Z" fill="#160D0D"/>
<path d="M16.2294 24.714C16.4897 24.4536 16.4897 24.0315 16.2294 23.7712C15.969 23.5108 15.5469 23.5108 15.2865 23.7712L14.3437 24.714C14.0834 24.9743 14.0834 25.3964 14.3437 25.6568C14.6041 25.9171 15.0262 25.9171 15.2865 25.6568L16.2294 24.714Z" fill="#160D0D"/>
<path d="M25.6571 15.2859C25.9174 15.0255 25.9174 14.6034 25.6571 14.3431C25.3967 14.0827 24.9746 14.0827 24.7142 14.3431L23.7714 15.2859C23.5111 15.5462 23.5111 15.9683 23.7714 16.2287C24.0318 16.489 24.4539 16.489 24.7142 16.2287L25.6571 15.2859Z" fill="#160D0D"/>
</g>
<mask id="mask1_82_1606" style="mask-type:luminance" maskUnits="userSpaceOnUse" x="48" y="12" width="16" height="16">
<path d="M64 12H48V28H64V12Z" fill="white"/>
</mask>
<g mask="url(#mask1_82_1606)">
<path d="M53.4479 18.3333C53.4479 16.6113 54.231 15.0762 55.4609 14.0397C52.3755 14.3798 49.9993 16.9308 49.9993 20C49.9993 23.2984 52.7436 25.9998 56.1634 26C58.1203 26 59.8571 25.1122 60.9843 23.735C60.4327 23.9059 59.8462 24 59.2376 24C56.0553 24 53.4479 21.4781 53.4479 18.3333ZM54.7812 18.3333C54.7812 20.7113 56.7609 22.6666 59.2376 22.6666C60.3887 22.6666 61.4343 22.2426 62.2239 21.5488C62.4499 21.3502 62.7809 21.3274 63.0319 21.4934C63.2828 21.6595 63.3913 21.9734 63.2968 22.2591C62.3203 25.2109 59.4905 27.3333 56.1634 27.3333C52.0381 27.3331 48.666 24.0652 48.666 20C48.666 15.9348 52.0381 12.6668 56.1634 12.6666C56.7862 12.6666 57.3917 12.742 57.9707 12.8821C58.2653 12.9535 58.4748 13.2145 58.4804 13.5175C58.486 13.8206 58.2865 14.0896 57.9947 14.1718C56.1283 14.6979 54.7812 16.3702 54.7812 18.3333Z" fill="#FBF8F7"/>
</g>
</g>
<defs>
<clipPath id="clip0_82_1606">
<rect width="76" height="40" fill="white"/>
</clipPath>
</defs>
</svg>
