<svg width="76" height="40" viewBox="0 0 76 40" fill="none" xmlns="http://www.w3.org/2000/svg">
<rect width="76" height="40" rx="20" fill="#E8DBD8"/>
<rect x="4" y="4" width="32" height="32" rx="16" fill="#160D0D"/>
<g clip-path="url(#clip0_8_1933)">
<path d="M22.6667 20C22.6667 18.5272 21.4728 17.3333 20 17.3333C18.5272 17.3333 17.3333 18.5272 17.3333 20C17.3333 21.4728 18.5272 22.6667 20 22.6667V24C17.7909 24 16 22.2091 16 20C16 17.7909 17.7909 16 20 16C22.2091 16 24 17.7909 24 20C24 22.2091 22.2091 24 20 24V22.6667C21.4728 22.6667 22.6667 21.4728 22.6667 20Z" fill="#FBF8F7"/>
<path d="M14 20.6666C14.3682 20.6666 14.6667 20.3681 14.6667 20C14.6667 19.6318 14.3682 19.3333 14 19.3333H12.6667C12.2985 19.3333 12 19.6318 12 20C12 20.3681 12.2985 20.6666 12.6667 20.6666H14Z" fill="#FBF8F7"/>
<path d="M27.3333 20.6666C27.7015 20.6666 28 20.3681 28 20C28 19.6318 27.7015 19.3333 27.3333 19.3333H26C25.6318 19.3333 25.3333 19.6318 25.3333 20C25.3333 20.3681 25.6318 20.6666 26 20.6666H27.3333Z" fill="#FBF8F7"/>
<path d="M20.6667 26C20.6667 25.6318 20.3682 25.3333 20 25.3333C19.6318 25.3333 19.3333 25.6318 19.3333 26L19.3333 27.3333C19.3333 27.7015 19.6318 28 20 28C20.3682 28 20.6667 27.7015 20.6667 27.3333L20.6667 26Z" fill="#FBF8F7"/>
<path d="M20.6667 12.6666C20.6667 12.2984 20.3682 12 20 12C19.6318 12 19.3333 12.2984 19.3333 12.6666L19.3333 14C19.3333 14.3681 19.6318 14.6666 20 14.6666C20.3682 14.6666 20.6667 14.3681 20.6667 14L20.6667 12.6666Z" fill="#FBF8F7"/>
<path d="M15.2859 16.2288C15.5463 16.4891 15.9684 16.4891 16.2287 16.2288C16.4891 15.9684 16.4891 15.5463 16.2287 15.286L15.2859 14.3432C15.0256 14.0828 14.6035 14.0828 14.3431 14.3432C14.0828 14.6035 14.0828 15.0256 14.3431 15.286L15.2859 16.2288Z" fill="#FBF8F7"/>
<path d="M24.714 25.6569C24.9744 25.9172 25.3965 25.9172 25.6568 25.6569C25.9172 25.3965 25.9172 24.9744 25.6568 24.7141L24.714 23.7713C24.4537 23.5109 24.0316 23.5109 23.7712 23.7713C23.5109 24.0316 23.5109 24.4537 23.7712 24.7141L24.714 25.6569Z" fill="#FBF8F7"/>
<path d="M16.2288 24.714C16.4891 24.4536 16.4891 24.0315 16.2288 23.7712C15.9684 23.5108 15.5463 23.5108 15.2859 23.7712L14.3431 24.714C14.0828 24.9743 14.0828 25.3964 14.3431 25.6568C14.6035 25.9171 15.0256 25.9171 15.2859 25.6568L16.2288 24.714Z" fill="#FBF8F7"/>
<path d="M25.6569 15.2859C25.9172 15.0255 25.9172 14.6034 25.6569 14.3431C25.3965 14.0827 24.9744 14.0827 24.714 14.3431L23.7712 15.2859C23.5109 15.5462 23.5109 15.9683 23.7712 16.2287C24.0316 16.489 24.4537 16.489 24.714 16.2287L25.6569 15.2859Z" fill="#FBF8F7"/>
</g>
<rect x="40" y="4" width="32" height="32" rx="16" fill="#E8DBD8"/>
<g clip-path="url(#clip1_8_1933)">
<path d="M53.4486 18.3333C53.4486 16.6113 54.2317 15.0762 55.4616 14.0397C52.3762 14.3798 50 16.9308 50 20C50 23.2984 52.7443 25.9998 56.1641 26C58.121 26 59.8578 25.1122 60.985 23.735C60.4334 23.9059 59.8469 24 59.2383 24C56.056 24 53.4486 21.4781 53.4486 18.3333ZM54.7819 18.3333C54.7819 20.7113 56.7616 22.6666 59.2383 22.6666C60.3894 22.6666 61.435 22.2426 62.2246 21.5488C62.4506 21.3502 62.7816 21.3274 63.0326 21.4934C63.2835 21.6595 63.392 21.9734 63.2975 22.2591C62.321 25.2109 59.4912 27.3333 56.1641 27.3333C52.0388 27.3331 48.6667 24.0652 48.6667 20C48.6667 15.9348 52.0388 12.6668 56.1641 12.6666C56.7869 12.6666 57.3924 12.742 57.9714 12.8821C58.266 12.9535 58.4755 13.2145 58.4811 13.5175C58.4867 13.8206 58.2872 14.0896 57.9954 14.1718C56.129 14.6979 54.7819 16.3702 54.7819 18.3333Z" fill="#160D0D"/>
</g>
<defs>
<clipPath id="clip0_8_1933">
<rect width="16" height="16" fill="white" transform="translate(12 12)"/>
</clipPath>
<clipPath id="clip1_8_1933">
<rect width="16" height="16" fill="white" transform="translate(48 12)"/>
</clipPath>
</defs>
</svg>
