<svg width="24" height="24" viewBox="0 0 24 24" fill="none" xmlns="http://www.w3.org/2000/svg">
<path d="M21.2223 2.77692C18.8522 0.407692 15.0007 0.407692 12.6306 2.77692L9.54946 5.85692C9.21934 6.18692 9.21934 6.72 9.54946 7.05C9.87959 7.38 10.4129 7.38 10.743 7.05L13.8241 3.97C15.534 2.26077 18.3105 2.26077 20.0203 3.97C20.8499 4.79923 21.307 5.89923 21.2985 7.07538C21.2985 8.24308 20.8499 9.34308 20.0203 10.1723L16.9392 13.2523C16.609 13.5823 16.609 14.1154 16.9392 14.4454C17.1085 14.6146 17.3201 14.6908 17.5402 14.6908C17.7602 14.6908 17.9719 14.6062 18.1412 14.4454L21.2223 11.3654C22.3735 10.2146 23.0084 8.68308 22.9999 7.07538C22.9999 5.45923 22.3735 3.92769 21.2223 2.77692ZM13.2485 16.95L10.1674 20.03C8.45751 21.7392 5.68108 21.7392 3.9712 20.03C3.14166 19.2008 2.68456 18.1008 2.69303 16.9246C2.69303 15.7569 3.14166 14.6569 3.9712 13.8277L7.05237 10.7477C7.38249 10.4177 7.38249 9.88462 7.05237 9.55462C6.72224 9.22462 6.18896 9.22462 5.85884 9.55462L2.77768 12.6346C1.62647 13.7854 0.991619 15.3169 1.00008 16.9246C1.00008 18.5408 1.62647 20.0723 2.77768 21.2231C3.92888 22.3738 5.52025 23 7.07776 23C8.63527 23 10.1928 22.4077 11.3778 21.2231L14.459 18.1431C14.7891 17.8131 14.7891 17.28 14.459 16.95C14.1289 16.62 13.5956 16.62 13.2655 16.95H13.2485Z" fill="#160D0D"/>
<path d="M15.4062 7.27254L7.27222 15.416C6.90926 15.7794 6.90926 16.3664 7.27222 16.7298C7.45835 16.9161 7.69102 17 7.93299 17C8.17497 17 8.40763 16.9068 8.59376 16.7298L16.7278 8.5863C17.0907 8.22292 17.0907 7.63592 16.7278 7.27254C16.3648 6.90915 15.7785 6.90915 15.4155 7.27254H15.4062Z" fill="#160D0D"/>
</svg>
