<svg width="24" height="24" viewBox="0 0 24 24" fill="none" xmlns="http://www.w3.org/2000/svg">
<path d="M16.0014 13C15.9181 16.0211 15.4573 18.6009 14.6882 20.4141C13.822 22.4559 12.8433 23 12 23C11.1567 23 10.178 22.4559 9.31179 20.4141C8.54268 18.6009 8.08191 16.0211 7.99857 13H16.0014Z" fill="#160D0D"/>
<path d="M5.98903 13C6.08699 16.7516 6.74225 20.0581 7.97798 22.2451C4.16361 20.7593 1.38247 17.2254 1 13H5.98903Z" fill="#160D0D"/>
<path d="M23 13C22.6175 17.2257 19.8358 20.7595 16.021 22.2451C17.2569 20.0581 17.913 16.7519 18.011 13H23Z" fill="#160D0D"/>
<path d="M16.021 1.75391C19.836 3.23946 22.6175 6.77416 23 11H18.011C17.913 7.24772 17.2572 3.94095 16.021 1.75391Z" fill="#160D0D"/>
<path d="M7.97798 1.75391C6.74198 3.94095 6.087 7.24796 5.98903 11H1C1.38248 6.77447 4.16344 3.23966 7.97798 1.75391Z" fill="#160D0D"/>
<path d="M12 1C12.8433 1 13.822 1.54406 14.6882 3.58594C15.4573 5.39905 15.9181 7.97887 16.0014 11H7.99857C8.08191 7.97887 8.54267 5.39905 9.31179 3.58594C10.178 1.54406 11.1567 1 12 1Z" fill="#160D0D"/>
</svg>
